<svg xmlns="http://www.w3.org/2000/svg" width="50" height="50" viewBox="0 0 66 66" fill="none">
    <path d="M5.15614 33C5.15614 32.453 5.37344 31.9284 5.76023 31.5416C6.14702 31.1548 6.67163 30.9375 7.21864 30.9375L50.9918 30.9375L33.9596 14.19C33.7664 14 33.6125 13.7739 33.5067 13.5245C33.4009 13.275 33.3453 13.0072 33.343 12.7362C33.3407 12.4653 33.3918 12.1966 33.4933 11.9454C33.5949 11.6942 33.7449 11.4655 33.9349 11.2722C34.1248 11.079 34.351 10.9251 34.6004 10.8193C34.8499 10.7135 35.1177 10.6579 35.3886 10.6556C35.9358 10.6509 36.4624 10.8639 36.8526 11.2475L57.4735 31.526C57.4829 31.535 57.4921 31.5441 57.501 31.5535C57.6937 31.7494 57.8454 31.9818 57.947 32.2372C58.0487 32.4925 58.0982 32.7656 58.0929 33.0403C58.0875 33.3151 58.0272 33.586 57.9157 33.8372C57.8041 34.0883 57.6435 34.3147 57.4433 34.5029L36.8526 54.7525C36.6595 54.9425 36.4309 55.0925 36.1798 55.1941C35.9287 55.2957 35.66 55.3468 35.3891 55.3446C35.1182 55.3424 34.8505 55.2868 34.6011 55.1811C34.3517 55.0754 34.1255 54.9216 33.9356 54.7284C33.7456 54.5353 33.5956 54.3067 33.494 54.0556C33.3924 53.8045 33.3412 53.5358 33.3435 53.2649C33.3457 52.994 33.4013 52.7263 33.507 52.4769C33.6127 52.2275 33.7665 52.0013 33.9596 51.8114L50.9918 35.0625L7.21864 35.0625C6.67163 35.0625 6.14702 34.8452 5.76023 34.4584C5.37343 34.0716 5.15614 33.547 5.15614 33Z" fill="white"/>
</svg>