<svg xmlns="http://www.w3.org/2000/svg" width="139" height="32" viewBox="0 0 139 32" fill="none">
    <g clip-path="url(#clip0_753_61)">
        <path d="M13.2383 32C8.72211 32 4.44152 29.4384 2.98847 25.8522V31.6847H0.75V0H2.9492V13.4778C4.99132 9.69458 8.3294 7.80296 13.1991 7.80296C19.7574 7.80296 24.5878 13.1232 24.5878 19.9409C24.6271 26.6404 19.7967 32 13.2383 32ZM12.5314 29.8719C18.3436 29.8719 22.3886 25.6158 22.3886 19.9409C22.3493 15.133 19.1683 9.93103 12.5314 9.93103C7.15125 9.93103 2.98847 14.0296 2.98847 17.931V22.0296C2.9492 25.931 7.7796 29.8719 12.5314 29.8719Z" fill="white"/>
        <path d="M27.1011 19.9409C27.1011 13.2808 32.5598 7.80296 39.1967 7.80296C45.8336 7.80296 51.2923 13.2808 51.2923 19.9409C51.2923 26.601 45.8336 32 39.1967 32C32.5598 32 27.1011 26.601 27.1011 19.9409ZM29.3395 19.9409C29.3395 25.4187 33.7772 29.9113 39.1967 29.9113C44.5376 29.9113 49.0931 25.5764 49.0931 19.9409C49.0931 14.4631 44.6554 9.81282 39.1967 9.81282C33.8558 9.81282 29.3395 14.266 29.3395 19.9409Z" fill="white"/>
        <path d="M65.1946 7.80296C70.1035 7.80296 73.4023 9.69459 75.4052 13.4778V8.03942H77.6044V31.6847H75.4052V25.8522C73.9521 29.4384 69.6716 32 65.1553 32C58.597 32 53.7666 26.6404 53.7666 19.9409C53.7666 13.1232 58.6755 7.80296 65.1946 7.80296ZM75.4445 22.0296V17.931C75.4445 14.069 71.2817 9.93104 65.9408 9.93104C59.3039 9.93104 56.0443 15.133 56.0443 19.9409C56.0443 25.6158 60.0893 29.8719 65.9015 29.8719C70.6141 29.8719 75.4445 25.931 75.4445 22.0296Z" fill="white"/>
        <path d="M138.75 31.5665H136.747L130.856 22.2266V20.6502C134.391 20.2956 136.197 18.601 136.197 15.0936C136.197 11.665 134.234 9.97044 130.739 9.61576V8.07881C135.373 8.43349 137.847 10.7586 137.847 15.133C137.847 18.9163 136.158 21.1231 132.663 21.9507L138.75 31.5665Z" fill="white"/>
        <path d="M82.3955 8.03941H80.7461V31.6453H82.3955V8.03941Z" fill="white"/>
        <path d="M100.499 24.1182V31.6453H96.376L96.2974 30.2266C96.0618 30.463 95.7869 30.6995 95.512 30.9754C95.2371 31.1724 94.8051 31.4089 94.2553 31.6059C93.6663 31.8424 93.0772 31.9212 92.4881 31.9212C91.1529 31.9212 90.014 31.5665 89.0715 30.8177C88.129 30.069 87.6577 29.0049 87.6577 27.665C87.6577 26.7192 87.9326 25.931 88.4824 25.3399C89.3857 24.2364 90.878 23.6847 92.8416 23.5665L96.1796 23.4483V23.1724C96.1796 21.7537 95.2764 21.0443 93.4699 21.0443C92.763 21.0443 92.0168 21.1626 91.2707 21.399C90.4853 21.6355 89.8569 21.9113 89.4249 22.2266L88.2861 19.3892C90.1318 18.4828 92.0169 18.0493 93.9804 18.0493C96.1796 18.0493 97.829 18.5616 98.9679 19.5862C99.9497 20.6108 100.499 22.1084 100.499 24.1182ZM96.1796 27.9803V25.7734L94.059 25.8916C92.6452 25.931 91.9383 26.4828 91.9383 27.5074C91.9383 28.0197 92.1347 28.4138 92.4881 28.7291C92.8416 29.0443 93.3521 29.1626 93.9412 29.1626C94.4124 29.1626 94.8837 29.0443 95.2764 28.8079C95.7084 28.5714 95.9833 28.2956 96.1796 27.9803Z" fill="#6AF4D3"/>
        <path d="M111.77 31.9606C109.807 31.9606 108.354 31.2906 107.372 29.9113H107.333L107.372 31.6847H103.249V12.9655H107.568V17.4581L107.529 19.9409H107.608C107.961 19.3892 108.511 18.9557 109.257 18.601C110.003 18.2463 110.828 18.0887 111.81 18.0887C113.695 18.0887 115.226 18.7586 116.365 20.0591C117.504 21.3596 118.093 23.0148 118.093 25.0246C118.093 27.0345 117.504 28.6897 116.365 30.0296C115.187 31.2906 113.655 31.9606 111.77 31.9606ZM112.792 27.468C113.381 26.798 113.655 25.9704 113.655 24.9458C113.655 23.9212 113.381 23.0936 112.792 22.4631C112.202 21.7931 111.456 21.4778 110.553 21.4778C109.611 21.4778 108.825 21.7931 108.275 22.4631C107.686 23.0936 107.411 23.9212 107.411 24.9458C107.411 25.9704 107.686 26.798 108.275 27.468C108.864 28.0985 109.611 28.4138 110.553 28.4138C111.496 28.4138 112.242 28.0985 112.792 27.468Z" fill="#6AF4D3"/>
        <path d="M130.307 27.5074C130.307 28.8473 129.796 29.9113 128.736 30.7783C127.754 31.5271 126.419 31.9212 124.691 31.9212C122.374 31.9212 120.489 31.2512 119.075 29.8719L120.685 27.3103C121.196 27.7438 121.863 28.1379 122.649 28.4926C123.473 28.8079 124.102 28.9655 124.612 28.9655C125.83 28.9655 126.458 28.5714 126.458 27.8227C126.458 27.5074 126.222 27.2315 125.712 26.9951C125.476 26.8769 125.28 26.798 125.083 26.7192C124.534 26.4828 124.18 26.3645 123.984 26.3645C123.277 26.1675 122.649 25.9704 122.099 25.734C120.567 25.064 119.821 23.8818 119.821 22.2266C119.821 20.9655 120.292 19.9409 121.235 19.1921C122.177 18.4039 123.395 18.0099 124.848 18.0099C126.929 18.0099 128.657 18.5616 129.953 19.665L128.539 22.2266C128.147 21.9113 127.597 21.5961 126.929 21.3202C126.262 21.0443 125.712 20.9261 125.201 20.9261C124.141 20.9261 123.591 21.2414 123.591 21.9113C123.591 22.3842 124.259 22.8177 125.555 23.2118C126.183 23.4089 126.811 23.6059 127.44 23.8424C128.186 24.1182 128.736 24.4335 129.168 24.8276C129.953 25.4975 130.307 26.4039 130.307 27.5074Z" fill="#6AF4D3"/>
        <path d="M130.778 8.03941H82.3955V9.57636H130.778V8.03941Z" fill="white"/>
        <path d="M80.7461 8.03943H85.066V31.6453H80.7461V8.03943Z" fill="#6AF4D3"/>
    </g>
    <defs>
        <clipPath id="clip0_753_61">
            <rect width="138" height="32" fill="white" transform="translate(0.75)"/>
        </clipPath>
    </defs>
</svg>