<svg height="100%" width="100%" viewBox="0 0 1439 317" opacity="0.5" fill="none" xmlns="http://www.w3.org/2000/svg">
    <g opacity="0.5" clip-path="url(#clip0_806_573)">
        <mask id="mask0_806_573" style="mask-type:luminance" maskUnits="userSpaceOnUse" x="-23" y="-459" width="1608"
              height="897">
            <path d="M-22.2018 -458.769H1584.47V437.636H-22.2018V-458.769Z" fill="white"/>
        </mask>
        <g mask="url(#mask0_806_573)">
            <path d="M1803.66 137.665L1803.74 137.15L1796.65 136.769C1660.24 129.486 1519.19 121.967 1400.18 87.6795C1390.56 84.9118 1380.82 81.9985 1371.4 79.186C1333.73 67.9362 1294.76 56.3053 1252.87 50.2545C1179.75 39.7106 1102.71 46.7474 1036.99 55.0167C994.096 60.4175 950.917 66.9725 909.163 73.3258C851.986 82.0097 792.861 90.9962 733.635 97.1253C611.789 109.72 510.911 107.344 425.235 89.8533C399.89 84.6765 375.127 77.9759 351.188 71.4993C319.938 63.0395 287.624 54.2996 253.704 48.8763C139.148 30.5672 17.5436 50.6579 -87.4521 70.9279C-94.9633 72.3846 -102.515 73.8412 -110.046 75.3091C-212.531 95.2429 -318.49 115.86 -426.077 109.305L-426.177 109.821C-318.37 116.387 -212.31 95.7471 -109.745 75.7909C-102.193 74.323 -94.662 72.8552 -87.1508 71.4097C17.7244 51.1622 139.168 31.0939 253.443 49.3582C287.283 54.7702 319.577 63.5102 350.786 71.9476C374.746 78.4353 399.549 85.1471 424.934 90.3239C510.79 107.849 611.83 110.224 733.836 97.6184C793.102 91.4892 852.247 82.5027 909.424 73.8076C951.158 67.4655 994.317 60.9106 1037.21 55.5097C1102.83 47.2516 1179.73 40.226 1252.67 50.7476C1294.46 56.7759 1333.38 68.3956 1371 79.6342C1380.42 82.4467 1390.18 85.36 1399.8 88.1389C1518.97 122.46 1660.1 130.001 1796.59 137.284L1803.66 137.665Z"
                  fill="url(#paint0_linear_806_573)"/>
        </g>
        <mask id="mask1_806_573" style="mask-type:luminance" maskUnits="userSpaceOnUse" x="-23" y="-459" width="1608"
              height="897">
            <path d="M-22.2018 -458.769H1584.47V437.636H-22.2018V-458.769Z" fill="white"/>
        </mask>
        <g mask="url(#mask1_806_573)">
            <path d="M1803.72 148.545L1803.8 148.03C1664.48 142.102 1518.39 133.407 1398.05 98.5259C1387.51 95.4781 1376.86 92.2623 1366.56 89.1585C1329.61 78.0206 1291.39 66.5018 1250.76 59.9357C1179.16 48.3384 1103.03 52.6523 1038 58.4005C976 63.8798 916.433 70.7261 845.017 79.1075C810.233 83.1637 778.862 87.1191 749.139 91.209C744.801 91.8028 740.483 92.3855 736.185 92.9682C721.786 94.8954 709.997 96.3969 699.071 97.6743C645.449 103.96 597.691 106.862 553.106 106.56C511.734 106.336 471.989 102.986 434.995 96.621C406.738 91.7692 378.903 84.9341 351.971 78.3231C343.114 76.1494 333.976 73.9084 324.899 71.757C307.627 67.6559 284.712 62.4568 260.752 58.6134C246.192 56.2716 230.969 54.3779 215.505 52.9661C174.836 49.2684 135.332 48.8538 94.7235 51.6999C46.162 55.0951 -1.89746 63.2636 -43.1486 70.6477C-54.9978 72.7655 -67.6301 75.1073 -82.9136 78.0206L-96.1084 80.5305C-125.49 86.1331 -155.896 91.9261 -186.142 96.9908C-311.08 117.933 -379.906 117.541 -425.877 114.874L-425.977 115.389C-338.273 120.488 -251.594 108.51 -185.861 97.495C-155.595 92.4303 -125.189 86.6261 -95.807 81.0236L-82.6123 78.5136C-67.349 75.6115 -54.7166 73.2697 -42.8674 71.1519C-1.65637 63.7678 46.3829 55.6105 94.844 52.2153C135.352 49.3805 174.776 49.7951 215.364 53.4815C230.788 54.8822 245.991 56.7758 260.511 59.1065C284.431 62.9498 307.306 68.1378 324.557 72.2276C333.615 74.379 342.773 76.62 351.61 78.7938C378.561 85.4048 406.437 92.2399 434.734 97.1141C471.828 103.49 511.654 106.84 553.106 107.075C597.771 107.378 645.569 104.465 699.272 98.1785C710.218 96.9011 722.027 95.3997 736.426 93.4724C740.744 92.8898 745.062 92.3183 749.38 91.7132C779.104 87.6234 810.454 83.668 845.238 79.6118C916.654 71.2304 976.201 64.3953 1038.18 58.916C1103.11 53.179 1179.1 48.865 1250.54 60.4399C1291.09 66.9836 1329.25 78.4912 1366.16 89.6179C1376.46 92.7217 1387.13 95.9375 1397.67 98.9965C1518.11 133.911 1664.3 142.618 1803.72 148.545Z"
                  fill="url(#paint1_linear_806_573)"/>
        </g>
        <mask id="mask2_806_573" style="mask-type:luminance" maskUnits="userSpaceOnUse" x="-23" y="-459" width="1608"
              height="897">
            <path d="M-22.2018 -458.769H1584.47V437.636H-22.2018V-458.769Z" fill="white"/>
        </mask>
        <g mask="url(#mask2_806_573)">
            <path d="M1803.76 159.426L1803.82 158.91C1746 157.073 1669.98 153.946 1594.77 145.991C1517.41 137.8 1452.34 125.822 1395.88 109.373C1384.29 106 1372.59 102.437 1361.28 98.9855C1325.19 87.9933 1287.85 76.6314 1248.61 69.6058C1178.94 57.0673 1106.66 58.4231 1038.96 61.7734C968.971 65.2358 908.279 69.3817 847.989 74.8273C811.739 78.0544 780.128 81.9314 751.388 86.6935C749.42 87.0185 747.432 87.3434 745.464 87.6684C743.174 88.0381 740.905 88.4191 738.635 88.7889L733.474 89.6517C723.332 91.3436 712.848 93.0916 702.606 94.6939C649.706 103.008 604.981 107.591 561.842 109.126C521.434 110.572 482.01 108.633 444.635 103.389C412.843 98.9295 381.172 91.8815 350.565 85.0688C344.66 83.7578 338.736 82.4356 332.791 81.1246C312.567 76.6874 290.697 72.0597 267.701 68.3508C253.08 65.9865 237.757 63.9696 222.132 62.3337C177.346 57.6612 138.866 56.4959 101.09 58.6697C53.3314 61.4149 4.66956 70.0876 -38.2485 77.7294C-49.9773 79.8248 -62.3887 82.0995 -78.4755 85.1136L-83.1949 85.9988C-115.79 92.1056 -149.49 98.4252 -183.09 103.736C-248.903 114.146 -335.964 125.441 -425.777 120.443L-425.877 120.959C-410.754 121.799 -395.692 122.18 -380.81 122.18C-307.185 122.18 -237.656 112.891 -182.849 104.229C-149.229 98.9183 -115.509 92.5986 -82.9139 86.4918L-78.1942 85.6066C-62.1075 82.5924 -49.7162 80.3178 -37.9874 78.2225C4.8905 70.5806 53.5123 61.9191 101.17 59.1851C138.866 57.0113 177.246 58.1766 221.951 62.8379C237.536 64.4739 252.839 66.4908 267.42 68.8438C290.355 72.5415 312.226 77.158 332.43 81.5952C338.374 82.895 344.299 84.2172 350.203 85.5394C380.851 92.3633 412.542 99.4113 444.394 103.882C481.87 109.148 521.394 111.076 561.882 109.641C605.101 108.106 649.887 103.512 702.847 95.187C713.089 93.5734 723.593 91.8254 733.735 90.1447L738.896 89.2819C741.166 88.9009 743.435 88.5311 745.725 88.1614C747.693 87.8364 749.661 87.5115 751.649 87.1865C780.348 82.4356 811.919 78.5587 848.13 75.3428C908.42 69.8971 969.072 65.7512 1039.04 62.2889C1106.66 58.9498 1178.82 57.5827 1248.33 70.0988C1287.51 77.1132 1324.79 88.4639 1360.84 99.4337C1372.16 102.885 1383.87 106.448 1395.46 109.821C1452 126.303 1517.15 138.293 1594.59 146.484C1669.86 154.462 1745.92 157.588 1803.76 159.426Z"
                  fill="url(#paint2_linear_806_573)"/>
        </g>
        <mask id="mask3_806_573" style="mask-type:luminance" maskUnits="userSpaceOnUse" x="-23" y="-459" width="1608"
              height="897">
            <path d="M-22.2018 -458.769H1584.47V437.636H-22.2018V-458.769Z" fill="white"/>
        </mask>
        <g mask="url(#mask3_806_573)">
            <path d="M1803.82 170.306L1803.86 169.79C1723.44 168.098 1654.76 164.109 1593.9 157.599C1516.88 149.352 1451.39 137.127 1393.71 120.219C1380.92 116.477 1368.03 112.51 1355.54 108.667C1320.45 97.8762 1284.18 86.7159 1246.44 79.2982C1175.45 65.2246 1102.61 64.6195 1039.91 65.1686C980.519 65.684 919.104 66.2219 850.921 70.5806C813.948 72.8665 782.116 76.665 753.597 82.2003L750.585 82.7829C747.392 83.3992 744.219 84.0155 741.065 84.643C735.02 85.8531 729.056 87.0745 723.131 88.2846C717.427 89.4499 711.764 90.6153 706.12 91.747C654.145 102.145 611.066 108.499 570.558 111.726C531.375 114.852 492.233 114.325 454.255 110.179C418.166 106.246 383.441 99.1983 346.669 91.7358L340.644 90.5144C318.612 86.0548 297.003 81.7521 274.63 78.1216C259.949 75.7461 244.505 73.5948 228.76 71.7347C193.714 67.6113 151.901 63.6559 107.456 65.684C63.0319 67.6897 18.969 75.5445 -23.6479 83.1303C-26.8813 83.7017 -30.1147 84.2844 -33.3481 84.8559C-47.5671 87.377 -61.8865 90.0102 -74.0369 92.2512C-106.612 98.2683 -143.545 105.081 -180.037 110.504C-277.943 125.071 -353.698 129.867 -425.676 126.046L-425.757 126.561C-353.677 130.382 -277.823 125.586 -179.796 110.997C-143.264 105.563 -106.331 98.7502 -73.7357 92.733C-61.5853 90.492 -47.2458 87.8588 -33.0469 85.3377C-29.8135 84.7662 -26.58 84.1948 -23.3466 83.6121C19.2301 76.0263 63.2327 68.1939 107.557 66.1882C151.88 64.1713 193.614 68.1155 228.599 72.2278C244.324 74.0878 259.748 76.2392 274.409 78.6146C296.742 82.2339 318.351 86.5366 340.363 90.9963L346.367 92.2176C383.18 99.6802 417.924 106.739 454.094 110.684C492.172 114.852 531.415 115.367 570.698 112.241C611.267 109.003 654.406 102.65 706.442 92.24C712.085 91.1083 717.749 89.9542 723.452 88.7776C729.377 87.5675 735.321 86.3461 741.367 85.136C744.5 84.5085 747.673 83.8922 750.866 83.276L753.879 82.6933C782.337 77.1692 814.088 73.3819 851.002 71.0961C919.124 66.7485 980.519 66.2106 1039.89 65.6952C1102.51 65.1462 1175.25 65.7512 1246.1 79.7912C1283.76 87.209 1320.01 98.3468 1355.05 109.126C1367.54 112.969 1380.44 116.936 1393.23 120.69C1450.99 137.621 1516.56 149.868 1593.68 158.126C1654.64 164.625 1723.36 168.625 1803.82 170.306Z"
                  fill="url(#paint3_linear_806_573)"/>
        </g>
        <mask id="mask4_806_573" style="mask-type:luminance" maskUnits="userSpaceOnUse" x="-23" y="-459" width="1608"
              height="897">
            <path d="M-22.2018 -458.769H1584.47V437.636H-22.2018V-458.769Z" fill="white"/>
        </mask>
        <g mask="url(#mask4_806_573)">
            <path d="M1803.88 181.186L1803.9 180.67C1633.71 178.911 1498.85 162.675 1391.57 131.066C1377.39 126.886 1363.09 122.438 1349.25 118.146C1315.39 107.613 1280.36 96.7219 1244.31 88.9792C1175.95 74.1661 1106.34 70.771 1040.89 68.5524C1034.26 68.3283 1027.68 68.093 1021.09 67.8689C968.369 66.0201 913.843 64.1152 853.914 66.3114C816.077 67.7008 784.004 71.4209 755.887 77.6957L755.124 77.8638C751.308 78.7154 747.372 79.5894 743.576 80.4858C735.302 82.4355 727.168 84.4524 719.316 86.4021C716.102 87.1977 712.909 87.9932 709.736 88.7776C672.461 97.9657 627.836 108.185 579.375 114.303C541.437 119.098 502.616 119.984 463.996 116.947C426.119 113.978 389.346 107.468 348.637 99.8818L340.644 98.3915C321.445 94.8059 301.602 91.1082 281.68 87.87C267.039 85.4833 251.494 83.2086 235.488 81.1021C193.835 75.6452 155.938 71.2528 113.923 72.6535C71.3668 74.0765 29.2319 81.6287 -11.4971 88.9344C-17.1204 89.9429 -22.7437 90.9514 -28.3469 91.9374C-42.5056 94.4361 -56.8451 97.0469 -69.5177 99.3439C-105.668 105.921 -141.095 112.23 -176.923 117.238C-273.504 130.741 -352.492 135.312 -425.495 131.615L-425.575 132.13C-352.472 135.828 -273.384 131.256 -176.682 117.743C-140.834 112.734 -105.387 106.414 -69.2166 99.837C-56.5641 97.5399 -42.2045 94.9292 -28.0658 92.4304C-22.4625 91.4444 -16.8392 90.4359 -11.2158 89.4274C29.473 82.1329 71.5476 74.5919 113.984 73.1801C155.878 71.7683 193.694 76.1606 235.287 81.6175C251.273 83.7241 266.798 85.9987 281.439 88.3742C301.341 91.6124 321.183 95.3213 340.363 98.8957L348.356 100.386C389.105 107.972 425.918 114.493 463.876 117.474C502.616 120.522 541.538 119.625 579.596 114.829C628.137 108.7 672.802 98.4699 710.117 89.2706C713.311 88.4862 716.504 87.6907 719.717 86.8951C727.57 84.9454 735.704 82.9173 743.958 80.9788C747.754 80.0936 751.69 79.2084 755.486 78.3568L756.249 78.1888C784.265 71.9363 816.238 68.2162 853.994 66.838C913.863 64.6418 968.349 66.5579 1021.05 68.3955C1027.63 68.6308 1034.24 68.8549 1040.85 69.079C1106.22 71.2864 1175.77 74.6816 1243.99 89.4723C1279.98 97.2038 1314.97 108.084 1348.81 118.617C1362.64 122.919 1376.94 127.368 1391.12 131.547C1498.55 163.179 1633.55 179.427 1803.88 181.186Z"
                  fill="url(#paint4_linear_806_573)"/>
        </g>
        <mask id="mask5_806_573" style="mask-type:luminance" maskUnits="userSpaceOnUse" x="-23" y="-459" width="1608"
              height="897">
            <path d="M-22.2018 -458.769H1584.47V437.636H-22.2018V-458.769Z" fill="white"/>
        </mask>
        <g mask="url(#mask5_806_573)">
            <path d="M1803.49 192.077C1803.65 192.077 1803.8 192.077 1803.96 192.077V191.562C1803.82 191.562 1803.65 191.562 1803.49 191.562C1639.9 191.562 1500.6 174.855 1389.44 141.912C1373.61 137.228 1357.68 132.208 1342.26 127.357C1309.87 117.16 1276.35 106.605 1242.23 98.6492C1171.87 82.0881 1099.81 76.4631 1041.91 71.9363C1032.15 71.1743 1022.27 70.3676 1012.73 69.572C964.011 65.5718 913.622 61.4147 856.946 62.0422C818.527 62.4568 786.233 66.1096 758.197 73.1913C754.501 74.1213 750.224 75.2081 746.106 76.3287C736.547 78.9282 727.328 81.6623 718.432 84.3067L713.351 85.8193C668.304 99.187 629.784 109.585 588.211 116.891C552.081 123.244 512.497 125.597 473.736 123.715C434.293 121.81 394.146 115.636 356.63 109.249C348.135 107.804 339.479 106.291 331.104 104.834C317.267 102.425 302.968 99.9378 288.729 97.6071C274.128 95.2204 258.905 92.8786 242.216 90.4695L236.09 89.5843C197.53 84.0041 161.099 78.7266 120.39 79.6342C78.9581 80.5418 38.0282 87.9483 -1.55603 95.1196C-8.70569 96.4194 -16.1165 97.7528 -23.3464 99.0301C-35.2357 101.114 -47.2858 103.277 -58.9341 105.372L-64.9792 106.459C-99.4623 112.644 -136.275 119.087 -173.771 123.995C-270.191 136.634 -350.122 140.825 -425.294 137.206L-425.375 137.721C-350.122 141.352 -270.09 137.15 -173.57 124.499C-136.034 119.591 -99.2213 113.137 -64.698 106.963L-58.653 105.876C-47.0046 103.792 -34.9547 101.63 -23.0653 99.5456C-15.8152 98.2794 -8.42444 96.9348 -1.25476 95.635C38.2693 88.475 79.1388 81.0796 120.43 80.1832C160.999 79.298 197.37 84.542 235.869 90.1221L241.995 91.0073C258.684 93.4276 273.887 95.7582 288.468 98.1449C302.687 100.476 316.986 102.963 330.823 105.372C339.198 106.829 347.854 108.342 356.349 109.787C393.905 116.185 434.112 122.359 473.656 124.264C512.537 126.146 552.242 123.782 588.492 117.418C630.145 110.101 668.705 99.6912 713.792 86.3124L718.893 84.7997C727.79 82.1553 736.989 79.4213 746.548 76.8217C750.645 75.7124 754.923 74.6255 758.618 73.6843C786.514 66.6363 818.708 63.0059 856.987 62.5913C913.622 61.975 963.93 66.1209 1012.61 70.1211C1022.15 70.9054 1032.03 71.7122 1041.79 72.4853C1099.63 77.0122 1171.63 82.6371 1241.86 99.1646C1275.95 107.12 1309.42 117.653 1341.82 127.85C1357.22 132.701 1373.17 137.721 1389.01 142.405C1500.28 175.348 1639.75 192.077 1803.49 192.077Z"
                  fill="url(#paint5_linear_806_573)"/>
        </g>
        <mask id="mask6_806_573" style="mask-type:luminance" maskUnits="userSpaceOnUse" x="-23" y="-459" width="1608"
              height="897">
            <path d="M-22.2018 -458.769H1584.47V437.636H-22.2018V-458.769Z" fill="white"/>
        </mask>
        <g mask="url(#mask6_806_573)">
            <path d="M1783.35 203.069C1790.42 203.069 1797.29 203.036 1804 202.957L1803.98 202.442C1693.88 203.618 1532.23 195.943 1387.27 152.759C1369.47 147.47 1351.62 141.766 1334.33 136.254C1303.7 126.483 1272.03 116.376 1240.08 108.33C1174.75 91.7245 1108.37 83.4664 1049.81 76.1831L1042.88 75.3203C1031.87 73.9533 1020.75 72.4854 1010 71.0624C963.488 64.922 915.389 58.5799 859.919 57.7732C821.459 57.2241 788 60.8882 760.466 68.6757C756.911 69.6842 752.734 70.8831 748.597 72.1605C738.234 75.3651 728.453 78.8051 718.994 82.1218L716.925 82.8501C675.774 97.2935 638.359 110.022 596.988 119.468C562.143 127.413 522.88 131.222 483.416 130.483C440.839 129.699 397.54 123.726 364.563 118.617C348.737 116.163 332.631 113.485 317.046 110.885C309.956 109.709 302.847 108.521 295.738 107.344C279.129 104.622 262.761 102.011 248.923 99.8258C243.501 98.9742 238.118 98.1002 232.756 97.2374C197.61 91.5565 164.392 86.2004 126.816 86.5926C86.0674 87.0184 45.9208 94.3802 7.09973 101.495C-1.255 103.03 -9.91089 104.61 -18.366 106.089C-27.9055 107.748 -37.4249 109.44 -46.9244 111.121C-51.4431 111.927 -55.9619 112.723 -60.4806 113.518C-101.27 120.723 -135.613 126.404 -170.658 130.685C-265.431 142.293 -348.676 146.226 -425.114 142.73L-425.194 143.245C-348.656 146.753 -265.331 142.808 -170.457 131.189C-135.371 126.897 -101.009 121.216 -60.1996 114.011C-55.6808 113.216 -51.1621 112.409 -46.6433 111.614C-37.1439 109.933 -27.6243 108.241 -18.0847 106.582C-9.62964 105.103 -0.973755 103.523 7.401 101.988C46.1619 94.8844 86.2482 87.5451 126.857 87.1081C164.372 86.6935 197.45 92.0607 232.515 97.7305C237.877 98.5932 243.26 99.4672 248.682 100.319C262.52 102.504 278.908 105.103 295.496 107.837C302.626 109.003 309.715 110.191 316.805 111.367C332.39 113.967 348.516 116.645 364.342 119.099C397.379 124.219 440.759 130.192 483.416 130.987C523 131.727 562.404 127.906 597.369 119.928C638.821 110.471 676.276 97.7305 717.447 83.2759L719.516 82.5476C728.975 79.2309 738.736 75.8021 749.079 72.5975C753.196 71.3201 757.373 70.1212 760.928 69.1239C788.322 61.37 821.68 57.7284 859.939 58.2774C915.329 59.073 963.368 65.415 1009.84 71.5442C1020.59 72.9673 1031.71 74.4351 1042.74 75.8021L1049.67 76.6649C1108.19 83.937 1174.5 92.184 1239.75 108.779C1271.67 116.824 1303.32 126.92 1333.93 136.679C1351.22 142.192 1369.07 147.896 1386.89 153.196C1523.15 193.825 1674.2 203.069 1783.35 203.069Z"
                  fill="url(#paint6_linear_806_573)"/>
        </g>
        <mask id="mask7_806_573" style="mask-type:luminance" maskUnits="userSpaceOnUse" x="-23" y="-459" width="1608"
              height="897">
            <path d="M-22.2018 -458.769H1584.47V437.636H-22.2018V-458.769Z" fill="white"/>
        </mask>
        <g mask="url(#mask7_806_573)">
            <path d="M1768.01 214.218C1780 214.218 1792.01 214.095 1804.06 213.837L1804.02 213.322C1731.05 214.857 1659.22 211.731 1590.53 204.033C1515.9 195.674 1446.77 182.071 1385.1 163.594C1364.93 157.566 1344.73 151.022 1325.19 144.702C1296.75 135.492 1267.33 125.967 1237.93 118.001C1178.46 101.742 1118.37 91.4669 1065.35 82.3908C1058.1 81.147 1050.93 79.9257 1043.86 78.7044C1032.39 76.7211 1020.85 74.5921 1009.66 72.5304C964.613 64.2386 918.04 55.6667 862.891 53.5041C823.869 51.969 790.169 55.5547 762.735 64.1714C758.076 65.628 754.381 66.8494 751.067 68.0035C740.222 71.7908 730.221 75.9031 720.54 79.8697L716.202 81.6513C679.53 96.7109 644.886 110.941 605.764 122.046C572.185 131.57 533.243 136.836 493.097 137.251C458.553 137.621 420.254 134.674 372.476 127.984C349.501 124.768 326.365 120.992 302.707 117.093C288.749 114.785 272.22 112.051 255.571 109.205C247.839 107.894 240.127 106.493 232.676 105.137C199.84 99.1984 168.811 93.5735 133.223 93.5735C133.183 93.5735 133.123 93.5735 133.063 93.5735C92.7955 93.5735 53.1912 100.924 14.9124 108.028C5.59363 109.754 -4.02625 111.546 -13.4453 113.182C-21.1172 114.516 -28.7891 115.86 -36.4609 117.205C-42.988 118.348 -49.515 119.491 -56.0221 120.634C-91.3486 126.785 -129.306 133.083 -167.605 137.441C-261.856 148.198 -346.046 151.75 -425.013 148.31L-425.094 148.826C-346.045 152.266 -261.756 148.702 -167.424 137.946C-129.085 133.576 -91.1077 127.278 -55.761 121.127C-49.2539 119.995 -42.7269 118.852 -36.1998 117.698C-28.528 116.353 -20.8561 115.009 -13.1842 113.675C-3.76514 112.039 5.87488 110.247 15.1735 108.521C53.392 101.428 92.916 94.1001 133.042 94.1001C133.103 94.1001 133.143 94.1001 133.203 94.1001C168.65 94.1001 199.599 99.7026 232.375 105.641C239.846 106.997 247.558 108.387 255.29 109.709C271.959 112.555 288.467 115.3 302.445 117.597C326.124 121.508 349.26 125.273 372.255 128.488C420.114 135.189 458.533 138.136 493.117 137.766C533.384 137.352 572.486 132.074 606.186 122.505C645.389 111.378 680.052 97.1367 716.765 82.0659L721.063 80.3067C730.783 76.3177 740.784 72.2166 751.589 68.4405C754.883 67.2864 758.558 66.0762 763.218 64.6196C790.491 56.0589 824.01 52.4957 862.871 54.0196C917.899 56.1822 964.412 64.7428 1009.4 73.0234C1020.59 75.0851 1032.15 77.2141 1043.62 79.1974C1050.69 80.4187 1057.86 81.6513 1065.11 82.8838C1118.09 91.9487 1178.16 102.224 1237.55 118.46C1266.91 126.416 1296.31 135.94 1324.75 145.139C1344.29 151.47 1364.49 158.014 1384.68 164.042C1446.43 182.531 1515.64 196.156 1590.35 204.526C1647.77 210.969 1707.38 214.218 1768.01 214.218Z"
                  fill="url(#paint7_linear_806_573)"/>
        </g>
        <mask id="mask8_806_573" style="mask-type:luminance" maskUnits="userSpaceOnUse" x="-23" y="-459" width="1608"
              height="897">
            <path d="M-22.2018 -458.769H1584.47V437.636H-22.2018V-458.769Z" fill="white"/>
        </mask>
        <g mask="url(#mask8_806_573)">
            <path d="M1756.8 225.457C1772.55 225.457 1788.33 225.211 1804.12 224.718L1804.06 224.202C1654.64 228.897 1505.1 211.216 1382.95 174.441C1359.83 167.493 1336.76 159.896 1314.44 152.546C1288.74 144.075 1262.15 135.324 1235.8 127.682C1183.18 112.275 1132.37 101.215 1083.25 90.5258C1069.91 87.6236 1057.3 84.8784 1044.85 82.0883C1033.34 79.5112 1021.73 76.7435 1010.5 74.0655C966.561 63.5888 921.113 52.7535 865.883 49.2351C826.299 46.7139 792.358 50.2211 765.005 59.6558C760.566 61.1909 756.911 62.5243 753.557 63.8353C743.275 67.8579 734.117 72.1494 724.055 76.9228C719.616 79.0293 715.218 81.1359 710.84 83.2312C679.068 98.4253 649.044 112.779 614.52 124.634C582.226 135.716 543.586 142.428 502.757 144.03C467.269 145.442 427.243 143.257 380.389 137.363C359.663 134.752 337.852 131.514 309.695 126.853C292.604 124.018 277.08 121.317 262.239 118.583C252.84 116.858 243.521 114.986 234.524 113.171C203.314 106.885 173.852 100.935 139.61 100.565C99.5233 100.095 60.2002 107.513 22.1624 114.661C12.0804 116.555 1.65723 118.516 -8.505 120.275C-14.4897 121.306 -20.4946 122.348 -26.4795 123.39C-34.8341 124.847 -43.1888 126.292 -51.5436 127.727C-86.9706 133.811 -125.189 140.019 -164.512 144.176C-257.98 154.081 -343.133 157.252 -424.853 153.879L-424.913 154.395C-343.093 157.767 -257.86 154.596 -164.332 144.68C-124.948 140.512 -86.7295 134.304 -51.2623 128.22C-42.9077 126.785 -34.5531 125.329 -26.1984 123.872C-20.2135 122.83 -14.2086 121.788 -8.22375 120.757C1.9585 118.998 12.3818 117.037 22.4636 115.143C60.4211 108.006 99.6439 100.644 139.59 101.07C173.671 101.439 203.073 107.367 234.202 113.642C243.22 115.457 252.538 117.339 261.937 119.065C276.779 121.799 292.303 124.5 309.414 127.334C337.611 132.007 359.422 135.245 380.168 137.856C427.103 143.761 467.229 145.946 502.797 144.534C543.767 142.932 582.548 136.198 614.962 125.071C649.566 113.194 679.59 98.8287 711.402 83.6234C715.781 81.5281 720.179 79.4327 724.617 77.315C734.659 72.5416 743.817 68.2613 754.039 64.2499C757.393 62.9389 761.008 61.6167 765.447 60.0816C792.619 50.7029 826.339 47.2294 865.723 49.7281C920.831 53.2353 966.2 64.0594 1010.08 74.5137C1021.31 77.1917 1032.92 79.9594 1044.44 82.5365C1056.92 85.3266 1069.51 88.0718 1082.86 90.974C1131.97 101.652 1182.74 112.701 1235.32 128.096C1261.65 135.738 1288.22 144.489 1313.92 152.949C1336.24 160.3 1359.33 167.897 1382.45 174.855C1491.92 207.82 1623.27 225.457 1756.8 225.457Z"
                  fill="url(#paint8_linear_806_573)"/>
        </g>
        <mask id="mask9_806_573" style="mask-type:luminance" maskUnits="userSpaceOnUse" x="-23" y="-459" width="1608"
              height="897">
            <path d="M-22.2018 -458.769H1584.47V437.636H-22.2018V-458.769Z" fill="white"/>
        </mask>
        <g mask="url(#mask9_806_573)">
            <path d="M1747.1 236.774C1766.16 236.774 1785.18 236.382 1804.18 235.598L1804.12 235.082C1657.45 241.167 1507.1 223.496 1380.8 185.287C1353.95 177.174 1327.26 168.21 1301.43 159.538C1279.24 152.075 1256.26 144.366 1233.69 137.363C1189.25 123.48 1146.27 112.174 1104.71 101.238C1084.11 95.8144 1064.63 90.6937 1045.87 85.4833C1034.54 82.3347 1023.12 78.9732 1012.09 75.7125C969.032 63.006 924.507 49.8512 868.916 44.9882C828.77 41.4698 794.588 44.8986 767.335 55.1736C763.117 56.7648 759.442 58.2438 756.108 59.7005C745.806 64.1937 736.788 69.0231 727.71 73.9869C721.284 77.5053 714.877 81.0573 708.692 84.4861C680.735 99.9939 654.346 114.65 623.377 127.233C592.349 139.85 554.01 148.008 512.517 150.809C475.785 153.308 435.197 151.974 388.402 146.73C366.471 144.276 343.054 140.96 316.765 136.59C300.176 133.833 284.09 130.92 268.987 127.951C258.343 125.866 247.839 123.525 237.677 121.25C207.693 114.561 179.375 108.241 146.097 107.535C106.071 106.661 66.9886 114.124 29.1516 121.328C18.4271 123.368 7.34119 125.485 -3.48376 127.345C-7.78162 128.085 -12.0793 128.825 -16.3772 129.564C-26.4189 131.301 -36.7819 133.094 -47.0043 134.819C-80.8849 140.556 -120.971 146.954 -161.359 150.898C-252.457 159.829 -341.044 162.697 -424.651 159.437L-424.712 159.952C-341.024 163.224 -252.376 160.344 -161.198 151.403C-120.75 147.447 -80.6439 141.049 -46.7231 135.301C-36.5007 133.575 -26.1377 131.783 -16.0961 130.046C-11.7982 129.306 -7.50037 128.567 -3.20251 127.827C7.64246 125.967 18.7284 123.849 29.453 121.799C67.2096 114.605 106.232 107.154 146.057 108.028C179.174 108.734 207.432 115.031 237.336 121.709C247.498 123.973 258.001 126.326 268.666 128.41C283.788 131.379 299.875 134.293 316.484 137.049C342.793 141.43 366.25 144.747 388.202 147.201C435.096 152.456 475.785 153.789 512.618 151.28C554.251 148.467 592.73 140.276 623.9 127.603C654.928 114.986 681.338 100.33 709.314 84.7998C715.5 81.3711 721.906 77.8191 728.333 74.3007C737.411 69.348 746.388 64.5298 756.671 60.0478C759.984 58.6024 763.64 57.1233 767.837 55.5434C794.889 45.3468 828.83 41.9404 868.756 45.4476C924.206 50.3106 968.65 63.4318 1011.65 76.1271C1022.69 79.3878 1034.1 82.7605 1045.45 85.9091C1064.23 91.1195 1083.71 96.2402 1104.31 101.663C1145.87 112.588 1188.82 123.894 1233.25 137.766C1255.82 144.758 1278.78 152.478 1300.97 159.93C1326.8 168.603 1353.51 177.578 1380.38 185.701C1490.46 219.048 1618.83 236.774 1747.1 236.774Z"
                  fill="url(#paint9_linear_806_573)"/>
        </g>
        <mask id="mask10_806_573" style="mask-type:luminance" maskUnits="userSpaceOnUse" x="-23" y="-459" width="1608"
              height="897">
            <path d="M-22.2018 -458.769H1584.47V437.636H-22.2018V-458.769Z" fill="white"/>
        </mask>
        <g mask="url(#mask10_806_573)">
            <path d="M1739.09 248.147C1760.9 248.147 1782.65 247.598 1804.24 246.478L1804.16 245.962C1660 253.414 1508.89 235.71 1378.65 196.133C1346.88 186.486 1315.47 175.673 1285.1 165.219C1267.53 159.168 1249.35 152.904 1231.56 147.044C1197.36 135.671 1164.02 125.474 1131.79 115.603C1101.72 106.403 1073.32 97.7193 1046.85 88.8785C1035.83 85.2033 1024.74 81.2703 1014.02 77.4606C971.743 62.4682 928.042 46.9604 871.888 40.7191C831.742 36.2595 796.375 39.6883 769.604 50.6581C765.527 52.3276 761.932 53.9187 758.598 55.5322C748.336 60.4961 739.479 65.9081 731.285 71.0289C723.613 75.8134 716.062 80.6764 708.751 85.3713C683.848 101.361 660.31 116.477 632.154 129.833C602.35 143.963 564.332 153.565 522.197 157.599C484.923 161.174 442.587 160.681 396.315 156.12C373.219 153.846 349.481 150.652 323.734 146.361C307.185 143.593 291.018 140.568 275.654 137.352C264.006 134.92 252.599 132.119 241.573 129.418C212.532 122.303 185.119 115.58 152.503 114.549C112.517 113.272 73.4955 120.813 35.7589 128.096C24.4922 130.27 12.8237 132.522 1.45654 134.472L-7.42029 135.996C-18.928 137.968 -30.8174 140.007 -42.5259 141.968C-76.5671 147.649 -116.935 153.969 -158.286 157.689C-247.999 165.779 -337.57 168.266 -424.511 165.062L-424.571 165.577C-337.55 168.793 -247.898 166.306 -158.126 158.204C-116.734 154.473 -76.3263 148.153 -42.2649 142.461C-30.5564 140.5 -18.667 138.461 -7.15918 136.489L1.71765 134.965C13.1049 133.015 24.7732 130.763 36.0601 128.578C73.7163 121.306 112.658 113.765 152.443 115.054C184.878 116.073 212.231 122.785 241.191 129.878C252.237 132.59 263.665 135.391 275.333 137.822C290.717 141.038 306.904 144.075 323.473 146.842C349.24 151.145 373.018 154.35 396.154 156.624C442.527 161.185 484.983 161.689 522.338 158.103C564.633 154.058 602.812 144.422 632.736 130.225C660.953 116.835 684.491 101.72 709.434 85.7075C716.745 81.0126 724.296 76.1608 731.948 71.3762C740.122 66.2667 748.958 60.8659 759.181 55.9356C762.495 54.3333 766.069 52.7534 770.126 51.0838C796.676 40.2037 831.782 36.7974 871.688 41.2346C927.66 47.4534 971.301 62.9388 1013.5 77.9088C1024.22 81.7185 1035.33 85.6515 1046.35 89.3267C1072.84 98.1675 1101.24 106.863 1131.33 116.062C1163.56 125.923 1196.88 136.119 1231.08 147.492C1248.87 153.364 1267.05 159.616 1284.62 165.667C1315.01 176.121 1346.42 186.945 1378.21 196.593C1489.09 230.287 1615.11 248.147 1739.09 248.147Z"
                  fill="url(#paint10_linear_806_573)"/>
        </g>
        <mask id="mask11_806_573" style="mask-type:luminance" maskUnits="userSpaceOnUse" x="-23" y="-459" width="1608"
              height="897">
            <path d="M-22.2018 -458.769H1584.47V437.636H-22.2018V-458.769Z" fill="white"/>
        </mask>
        <g mask="url(#mask11_806_573)">
            <path d="M1732.36 259.554C1756.54 259.554 1780.54 258.826 1804.28 257.358L1804.18 256.842C1662.35 265.594 1510.46 247.89 1376.48 206.969C1337.94 195.215 1300.21 181.802 1263.71 168.838C1252.45 164.838 1240.8 160.692 1229.41 156.703C1208.75 149.419 1188.3 142.383 1168.54 135.581C1125.24 120.678 1084.33 106.605 1047.82 92.2623C1037.19 88.0941 1026.51 83.6345 1016.19 79.3317C974.635 61.9975 931.676 44.0805 874.881 36.4499C834.152 30.9818 798.544 34.3321 771.893 46.1535C767.937 47.9015 764.422 49.6159 761.089 51.3751C750.946 56.7759 742.23 62.8266 734.88 68.0706C726.525 74.0205 718.351 80.0824 710.458 85.9315C688.045 102.549 666.878 118.236 640.97 132.41C612.391 148.041 574.675 159.089 531.917 164.356C493.739 169.073 450.801 169.443 404.288 165.476C380.61 163.459 355.887 160.299 330.783 156.086C314.154 153.296 297.886 150.148 282.382 146.697C269.95 143.94 257.82 140.702 246.112 137.564C217.834 129.99 191.123 122.841 158.97 121.508C118.924 119.827 79.9419 127.457 42.2455 134.842C30.4968 137.139 18.3263 139.525 6.47705 141.542L2.27979 142.259C-10.8949 144.512 -24.5316 146.831 -37.9874 149.05C-72.2295 154.697 -112.938 160.927 -155.133 164.412C-243.018 171.673 -333.574 173.768 -424.31 170.608L-424.371 171.124C-333.594 174.283 -242.958 172.188 -155.013 164.916C-112.758 161.431 -72.0287 155.19 -37.7465 149.543C-24.2906 147.324 -10.6741 145.005 2.52075 142.752L6.71814 142.035C18.6074 140.007 30.7579 137.632 42.5267 135.323C80.1428 127.962 119.024 120.353 158.89 122.023C190.842 123.356 217.493 130.483 245.69 138.035C257.418 141.172 269.549 144.422 282.021 147.19C297.545 150.641 313.853 153.801 330.502 156.591C355.646 160.804 380.429 163.975 404.147 165.992C450.761 169.981 493.819 169.6 532.118 164.871C575.057 159.582 612.914 148.489 641.613 132.791C667.58 118.583 688.768 102.874 711.202 86.2452C719.094 80.3962 727.268 74.3454 735.623 68.3956C742.973 63.1628 751.649 57.1345 761.751 51.756C765.045 50.008 768.56 48.3049 772.476 46.5681C790.892 38.3996 823.588 30.1079 874.66 36.9654C931.275 44.5736 974.153 62.4569 1015.64 79.7575C1025.99 84.0714 1036.67 88.5199 1047.3 92.6993C1083.85 107.053 1124.76 121.138 1168.06 136.041C1187.82 142.842 1208.26 149.879 1228.93 157.162C1240.32 161.151 1251.97 165.286 1263.23 169.286C1299.74 182.261 1337.5 195.674 1376.06 207.439C1487.76 241.547 1611.94 259.554 1732.36 259.554Z"
                  fill="url(#paint11_linear_806_573)"/>
        </g>
        <mask id="mask12_806_573" style="mask-type:luminance" maskUnits="userSpaceOnUse" x="-23" y="-459" width="1608"
              height="897">
            <path d="M-22.2018 -458.769H1584.47V437.636H-22.2018V-458.769Z" fill="white"/>
        </mask>
        <g mask="url(#mask12_806_573)">
            <path d="M1726.64 270.983C1752.86 270.983 1778.81 270.076 1804.36 268.249L1804.24 267.734C1664.56 277.751 1511.88 260.025 1374.33 217.826C1325.91 202.98 1279.14 185.634 1233.93 168.86L1224.23 165.263C1160.2 141.397 1099.71 118.841 1048.8 95.6688C1038.58 91.0187 1028.32 86.0661 1018.4 81.2703C977.567 61.5606 935.372 41.1674 877.873 32.2033C849.134 27.6541 807.803 25.6147 774.183 41.6604C770.407 43.4644 766.853 45.3356 763.599 47.2293C754.602 52.4845 747.05 58.1766 738.475 65.1238C729.799 72.1494 721.424 79.3094 713.311 86.2342C693.006 103.58 673.847 119.961 649.767 135.01C622.393 152.131 584.998 164.625 541.618 171.146C502.616 177.018 459.076 178.273 412.241 174.855C387.84 173.073 362.796 170.048 337.792 165.835C321.103 163.022 304.715 159.739 289.07 156.075C275.976 153.016 263.283 149.33 251.032 145.767C224.583 138.08 197.209 130.124 165.417 128.488C125.27 126.415 86.2686 134.147 48.532 141.621C36.3414 144.041 23.7291 146.54 11.4381 148.624L10.6749 148.758C-3.78503 151.212 -18.7271 153.745 -33.4883 156.143C-65.963 161.42 -108.761 167.897 -152.02 171.146C-237.595 177.589 -329.135 179.281 -424.129 176.177L-424.19 176.693C-329.135 179.796 -237.515 178.104 -151.9 171.65C-108.58 168.401 -65.7222 161.913 -33.2273 156.636C-18.4661 154.238 -3.50391 151.694 10.936 149.251L11.6992 149.117C24.0103 147.022 36.6427 144.523 48.8333 142.103C86.4493 134.64 125.371 126.931 165.317 128.993C196.948 130.617 223.016 138.192 250.61 146.215C262.901 149.789 275.594 153.476 288.729 156.546C304.394 160.221 320.822 163.504 337.531 166.328C362.575 170.541 387.679 173.578 412.121 175.359C459.096 178.777 502.737 177.522 541.859 171.628C585.4 165.073 622.956 152.523 650.47 135.335C674.59 120.253 693.79 103.86 714.094 86.4919C722.208 79.5671 730.582 72.4071 739.238 65.3815C747.794 58.4568 755.325 52.7758 764.262 47.5542C767.475 45.6718 771.01 43.8117 774.766 42.0189C808.084 26.1189 849.074 28.1583 877.592 32.6627C934.89 41.6043 977.025 61.9415 1017.77 81.6176C1027.72 86.4134 1037.98 91.3773 1048.2 96.0274C1099.15 119.211 1159.66 141.766 1223.71 165.644L1233.41 169.252C1278.66 186.038 1325.43 203.383 1373.89 218.241C1486.46 252.809 1609.17 270.983 1726.64 270.983Z"
                  fill="url(#paint12_linear_806_573)"/>
        </g>
        <mask id="mask13_806_573" style="mask-type:luminance" maskUnits="userSpaceOnUse" x="-23" y="-459" width="1608"
              height="897">
            <path d="M-22.2018 -458.769H1584.47V437.636H-22.2018V-458.769Z" fill="white"/>
        </mask>
        <g mask="url(#mask13_806_573)">
            <path d="M1721.67 282.424C1749.71 282.424 1777.37 281.337 1804.4 279.129L1804.26 278.614C1666.57 289.853 1513.11 272.115 1372.16 228.673C1319.47 212.437 1268.27 192.973 1225.13 176.076C1147.37 145.486 1093.29 121.732 1049.75 99.0638C1040.03 94.0103 1030.27 88.6207 1020.83 83.4103C980.66 61.2579 939.127 38.3436 880.805 27.934C827.986 18.4097 794.889 27.6875 776.412 37.1446C772.757 39.0159 769.263 41.0104 766.049 43.0609C756.691 49.0332 748.978 55.7674 742.01 62.1543C733.313 70.1547 724.979 78.3457 716.946 86.2677C698.489 104.442 681.037 121.608 658.503 137.598C632.294 156.187 595.2 170.126 551.238 177.925C512.055 184.872 466.707 187.057 420.114 184.234C395.05 182.721 369.685 179.808 344.721 175.594C327.931 172.76 311.443 169.353 295.677 165.465C282.041 162.104 268.886 157.98 256.174 153.991C230.186 145.845 203.334 137.408 171.743 135.48C131.416 133.015 92.3739 140.859 54.577 148.445C42.0049 150.977 28.9908 153.588 16.2982 155.728C0.171265 158.451 -14.349 160.893 -29.0902 163.258C-61.7859 168.502 -104.985 174.9 -149.028 177.891C-232.795 183.595 -322.769 184.861 -424.089 181.757L-424.15 182.273C-322.769 185.376 -232.755 184.11 -148.927 178.407C-104.824 175.415 -61.585 169.006 -28.8491 163.751C-14.1079 161.386 0.432373 158.944 16.5593 156.221C29.2721 154.069 42.2861 151.459 54.8783 148.926C92.5547 141.352 131.516 133.531 171.623 135.985C203.033 137.901 229.804 146.304 255.712 154.428C268.445 158.417 281.599 162.552 295.296 165.924C311.081 169.824 327.61 173.241 344.44 176.076C369.464 180.301 394.889 183.214 419.993 184.738C466.727 187.573 512.196 185.376 551.519 178.407C595.662 170.586 632.897 156.579 659.226 137.912C681.8 121.9 700.076 103.904 717.749 86.5142C725.802 78.5922 734.117 70.4125 742.813 62.4233C749.742 56.0588 757.434 49.347 766.752 43.4083C769.945 41.3689 773.4 39.3968 777.035 37.5368C795.311 28.1694 828.107 18.9812 880.504 28.4383C938.605 38.8142 980.057 61.6725 1020.14 83.7913C1029.58 89.0017 1039.36 94.3913 1049.08 99.456C1092.64 122.146 1146.77 145.912 1224.57 176.513C1267.73 193.422 1318.94 212.896 1371.68 229.132C1485.17 264.081 1606.74 282.424 1721.67 282.424Z"
                  fill="url(#paint13_linear_806_573)"/>
        </g>
        <mask id="mask14_806_573" style="mask-type:luminance" maskUnits="userSpaceOnUse" x="-23" y="-459" width="1608"
              height="897">
            <path d="M-22.2018 -458.769H1584.47V437.636H-22.2018V-458.769Z" fill="white"/>
        </mask>
        <g mask="url(#mask14_806_573)">
            <path d="M1717.36 293.875C1747.02 293.875 1776.14 292.598 1804.46 290.01L1804.32 289.494C1668.49 301.909 1514.25 284.161 1370.02 239.508C1324.75 225.502 1276.67 207.921 1223.01 185.746C1152.69 156.613 1096.34 129.362 1050.73 102.448C1041.55 97.0247 1032.29 91.2653 1023.36 85.6852C983.833 61.034 942.964 35.5425 883.798 23.6651C864.237 19.7097 845.68 18.2642 828.649 19.3399C809.389 20.5613 792.58 25.0321 778.702 32.6403C775.147 34.59 771.733 36.6966 768.56 38.904C759.382 45.2909 752.112 52.4285 745.625 59.1964C737.089 68.1044 729.016 77.2589 721.224 86.1109C705.177 104.364 688.568 123.233 667.32 140.175C642.376 160.199 605.604 175.595 560.959 184.682C521.113 192.806 475.162 195.876 428.067 193.59C402.421 192.335 376.734 189.556 351.75 185.321C334.86 182.452 318.251 178.923 302.406 174.81C288.287 171.157 274.771 166.597 261.697 162.193C236.111 153.565 209.661 144.657 178.21 142.439C137.722 139.57 98.5397 147.548 60.6826 155.246C47.7489 157.879 34.3734 160.602 21.3394 162.787C6.59827 165.264 -9.08691 167.886 -24.531 170.328C-57.4677 175.539 -101.048 181.881 -145.854 184.604C-226.911 189.545 -315.257 190.408 -423.848 187.304L-423.888 187.819C-315.237 190.923 -226.85 190.072 -145.734 185.119C-100.848 182.385 -57.2467 176.043 -24.2699 170.821C-8.82581 168.379 6.85925 165.757 21.6005 163.28C34.6747 161.084 48.0502 158.361 61.004 155.728C98.7808 148.041 137.823 140.097 178.11 142.943C209.36 145.15 235.729 154.036 261.235 162.63C274.329 167.045 287.885 171.617 302.044 175.27C317.93 179.393 334.579 182.934 351.529 185.802C376.573 190.049 402.32 192.839 428.047 194.094C475.263 196.391 521.354 193.31 561.34 185.164C606.166 176.032 643.099 160.58 668.143 140.467C689.432 123.491 706.041 104.599 722.127 86.3238C729.92 77.4718 737.973 68.3173 746.508 59.4205C752.975 52.675 760.225 45.5598 769.343 39.2065C772.496 37.0103 775.87 34.9262 779.405 32.9877C797.58 23.0264 830.417 13.4012 883.537 24.1357C942.482 35.9683 983.271 61.415 1022.71 86.0101C1031.65 91.5902 1040.91 97.3608 1050.11 102.784C1095.76 129.721 1152.15 156.994 1222.5 186.139C1276.21 208.325 1324.33 225.917 1369.61 239.934C1483.91 275.353 1604.55 293.875 1717.36 293.875Z"
                  fill="url(#paint14_linear_806_573)"/>
        </g>
        <mask id="mask15_806_573" style="mask-type:luminance" maskUnits="userSpaceOnUse" x="-23" y="-459" width="1608"
              height="897">
            <path d="M-22.2018 -458.769H1584.47V437.636H-22.2018V-458.769Z" fill="white"/>
        </mask>
        <g mask="url(#mask15_806_573)">
            <path d="M1712.48 305.416C1743.93 305.416 1774.65 303.904 1804.52 300.89L1804.36 300.374C1734.89 307.4 1660.66 306.234 1583.76 296.901C1511.68 288.149 1439.04 272.485 1367.87 250.355C1319.73 235.396 1270.28 216.908 1220.88 195.427C1154.88 166.686 1097.97 136.545 1051.69 105.843C1043.04 100.095 1034.32 93.9992 1025.91 88.1053C987.046 60.9106 946.86 32.7747 886.79 19.407C844.334 9.92755 806.778 13.0314 781.011 28.1358C777.597 30.1191 774.264 32.3489 771.09 34.7468C762.133 41.537 755.305 49.0893 749.26 56.2381C741.026 65.9753 733.374 76.0262 725.963 85.7522C711.342 104.935 696.22 124.779 676.177 142.775C652.318 164.266 615.846 181.107 570.719 191.472C530.251 200.761 483.698 204.739 436.06 202.968C409.851 201.994 383.864 199.338 358.799 195.08C341.789 192.189 325.08 188.525 309.133 184.2C294.613 180.267 280.776 175.281 267.4 170.451C242.156 161.353 216.047 151.941 184.677 149.431C143.968 146.181 104.665 154.271 66.6674 162.104C53.4124 164.838 39.6954 167.661 26.3198 169.902C9.10852 172.782 -5.37158 175.169 -20.0125 177.455C-53.2302 182.642 -97.1926 188.906 -142.722 191.371C-241.07 196.694 -339.92 195.125 -423.667 192.895L-423.708 193.411C-339.94 195.64 -241.05 197.198 -142.641 191.875C-97.032 189.41 -53.0093 183.135 -19.7714 177.948C-5.13062 175.662 9.34949 173.275 26.5809 170.384C39.9766 168.143 53.7135 165.308 66.9886 162.585C104.886 154.787 144.048 146.719 184.536 149.946C215.726 152.434 241.734 161.812 266.898 170.888C280.294 175.718 294.151 180.715 308.732 184.671C324.718 189.007 341.488 192.682 358.538 195.584C383.663 199.853 409.731 202.52 436 203.495C483.758 205.265 530.472 201.288 571.06 191.965C616.388 181.556 653 164.647 676.96 143.055C697.043 125.026 712.186 105.171 726.807 85.9651C734.217 76.2503 741.869 66.1994 750.103 56.4734C756.128 49.347 762.937 41.8284 771.854 35.0717C775.007 32.6851 778.3 30.4776 781.694 28.5055C807.18 13.558 844.394 10.5102 886.469 19.9001C946.297 33.2229 986.404 61.2916 1025.2 88.4415C1033.64 94.3353 1042.36 100.442 1051.01 106.19C1097.32 136.915 1154.28 167.09 1220.33 195.853C1269.76 217.356 1319.26 235.844 1367.44 250.825C1438.7 272.978 1511.42 288.654 1583.6 297.416C1627.52 302.738 1670.64 305.416 1712.48 305.416Z"
                  fill="url(#paint15_linear_806_573)"/>
        </g>
        <mask id="mask16_806_573" style="mask-type:luminance" maskUnits="userSpaceOnUse" x="-23" y="-459" width="1608"
              height="897">
            <path d="M-22.2018 -458.769H1584.47V437.636H-22.2018V-458.769Z" fill="white"/>
        </mask>
        <g mask="url(#mask16_806_573)">
            <path d="M1708.38 316.935C1741.3 316.935 1773.43 315.221 1804.58 311.77L1804.4 311.265C1677.35 325.35 1533.69 310.459 1388.91 268.216C1323.82 249.223 1261.06 225.423 1202.4 197.489C1145.44 170.373 1095.07 140.68 1052.68 109.238C1044.54 103.21 1036.37 96.8341 1028.46 90.6601C990.26 60.8546 950.756 30.0407 889.783 15.1491C846.804 4.64998 808.987 7.67533 783.301 23.6426C770.367 31.6878 761.771 41.3129 752.854 53.2912C745.022 63.8127 737.852 74.7041 730.943 85.2368C717.668 105.417 703.952 126.292 684.993 145.374C641.251 189.41 548.908 215.104 444.013 212.358C398.785 211.182 355.646 204.862 315.821 193.59C300.959 189.377 286.861 183.965 273.224 178.721C248.281 169.129 222.474 159.213 191.083 156.423C150.133 152.792 110.69 161.005 72.5515 168.961C58.9752 171.785 44.957 174.709 31.2803 176.995C-26.2987 186.587 -82.6927 195.427 -139.629 198.117C-234.121 202.588 -327.83 200.84 -423.507 198.475L-423.547 198.991C-327.83 201.355 -234.101 203.103 -139.549 198.632C-82.5321 195.932 -26.0779 187.091 31.5413 177.488C45.2582 175.202 59.2965 172.278 72.8728 169.443C110.891 161.521 150.214 153.319 190.943 156.938C222.112 159.706 247.819 169.589 272.682 179.147C286.339 184.39 300.457 189.825 315.379 194.049C355.325 205.366 398.584 211.697 443.953 212.874C549.169 215.585 641.874 189.836 685.796 145.621C704.795 126.494 718.532 105.608 731.807 85.4049C738.736 74.8721 745.885 63.992 753.718 53.4817C762.595 41.5483 771.15 31.9679 784.004 23.9787C818.286 2.67786 864.759 9.6026 889.421 15.6197C950.153 30.4552 989.577 61.2132 1027.71 90.9514C1035.63 97.1254 1043.82 103.512 1051.96 109.541C1094.41 141.016 1144.82 170.732 1201.82 197.87C1260.54 225.827 1323.36 249.649 1388.51 268.653C1497.97 300.609 1606.84 316.935 1708.38 316.935Z"
                  fill="url(#paint16_linear_806_573)"/>
        </g>
        <mask id="mask17_806_573" style="mask-type:luminance" maskUnits="userSpaceOnUse" x="-23" y="-459" width="1608"
              height="897">
            <path d="M-22.2018 -458.769H1584.47V437.636H-22.2018V-458.769Z" fill="white"/>
        </mask>
        <g mask="url(#mask17_806_573)">
            <path d="M1716.79 312.576C1746.96 312.576 1776.24 311.176 1804.54 308.374L1804.38 307.859C1711.49 317.07 1557.94 315.378 1353.87 254.971C1292.51 236.897 1234.25 215.339 1180.73 190.901C1132.73 168.916 1089.25 144.926 1051.43 119.614C1042.56 113.653 1033.58 107.311 1024.92 101.17C985.841 73.4938 945.434 44.8761 885.465 30.5784C843.209 20.4938 805.573 22.9029 779.485 37.3575C764.884 45.4587 755.023 55.4648 747.312 64.1824C738.515 74.1213 730.482 84.4188 722.709 94.3689C708.751 112.252 694.312 130.752 675.112 147.615C651.896 168.109 616.228 184.334 571.964 194.52C530.873 203.977 483.497 208.134 434.955 206.532C425.597 206.229 416.177 205.702 406.959 204.985C372.315 202.296 338.796 196.727 307.366 188.435C292.846 184.603 279.008 179.74 265.653 175.034C240.307 166.115 214.099 156.904 182.829 154.753C172.526 154.047 162.143 154.047 151.057 154.764C122.137 156.602 93.7795 162.899 66.3657 168.995C53.0907 171.942 39.3738 174.989 25.9983 177.432C-27.8251 187.214 -80.6443 196.313 -134.99 200.1C-137.319 200.268 -139.669 200.414 -142.019 200.559C-222.533 205.389 -309.333 205.971 -423.467 202.431L-423.527 202.946C-309.354 206.487 -222.513 205.904 -141.939 201.075C-139.589 200.929 -137.239 200.783 -134.909 200.615C-80.4835 196.817 -27.6041 187.718 26.2594 177.925C39.675 175.482 53.412 172.435 66.687 169.488C94.0607 163.414 122.338 157.128 151.138 155.291C162.163 154.585 172.486 154.585 182.688 155.28C213.757 157.42 239.886 166.608 265.13 175.494C278.526 180.211 292.384 185.085 306.944 188.917C338.475 197.231 372.074 202.823 406.819 205.512C416.077 206.229 425.516 206.756 434.895 207.058C483.557 208.661 531.094 204.492 572.305 195.002C616.75 184.771 652.578 168.479 675.895 147.895C695.135 130.998 709.575 112.487 723.553 94.5817C731.325 84.6316 739.358 74.3342 748.135 64.4065C755.807 55.7226 765.627 45.7613 780.128 37.716C805.935 23.4184 843.209 21.0541 885.083 31.0378C944.831 45.2907 985.158 73.8524 1024.18 101.473C1032.86 107.613 1041.81 113.967 1050.71 119.928C1088.55 145.274 1132.09 169.275 1180.13 191.282C1233.71 215.742 1292.01 237.312 1353.43 255.408C1429.2 277.841 1504.21 293.92 1576.35 303.209C1624.79 309.45 1671.77 312.576 1716.79 312.576Z"
                  fill="url(#paint17_linear_806_573)"/>
        </g>
        <mask id="mask18_806_573" style="mask-type:luminance" maskUnits="userSpaceOnUse" x="-23" y="-459" width="1608"
              height="897">
            <path d="M-22.2018 -458.769H1584.47V437.636H-22.2018V-458.769Z" fill="white"/>
        </mask>
        <g mask="url(#mask18_806_573)">
            <path d="M1725.85 308.285C1752.92 308.285 1779.13 307.176 1804.46 304.968L1804.32 304.453C1676.11 315.669 1525.22 298.402 1355.84 253.134C1293.54 236.651 1235.06 217.277 1181.98 195.562C1133.65 175.639 1089.31 153.576 1050.17 129.967C1040.41 124.062 1030.53 117.743 1020.99 111.625C981.142 86.0883 939.951 59.678 881.107 45.9854C839.554 36.3042 802.099 38.1082 775.629 51.0613C763.398 57.0448 752.935 64.4514 741.708 75.0626C731.908 84.3292 722.93 93.9431 714.255 103.232C699.634 118.897 684.511 135.099 665.191 149.845C641.151 168.177 605.323 182.486 561.561 191.214C520.832 199.338 473.917 202.621 425.858 200.705C416.599 200.335 407.26 199.775 398.083 199.047C363.8 196.301 330.422 191.001 298.851 183.292C284.772 179.852 271.276 175.538 258.242 171.37C231.23 162.742 205.724 154.585 174.454 153.083C164.433 152.613 153.929 152.826 143.225 153.711C114.807 156.075 86.9714 162.664 60.0397 169.028C47.0859 172.087 33.6704 175.258 20.5961 177.847C-31.9419 188.223 -83.5762 197.904 -137.6 202.431C-139.91 202.621 -142.22 202.8 -144.529 202.98C-227.554 209.042 -321.423 210.184 -423.527 206.352L-423.587 206.868C-321.403 210.7 -227.473 209.557 -144.409 203.495C-142.099 203.327 -139.79 203.136 -137.48 202.946C-83.3754 198.419 -31.701 188.716 20.8772 178.34C33.9916 175.74 47.4073 172.569 60.3812 169.51C87.2527 163.157 115.048 156.591 143.345 154.238C153.99 153.352 164.413 153.139 174.374 153.61C205.443 155.112 230.869 163.235 257.78 171.83C270.834 176.009 284.351 180.323 298.469 183.774C330.1 191.506 363.579 196.817 397.942 199.573C407.14 200.313 416.519 200.873 425.777 201.243C473.957 203.17 521.013 199.876 561.862 191.73C605.784 182.967 641.774 168.591 665.914 150.181C685.294 135.402 700.417 119.188 715.058 103.501C723.734 94.212 732.691 84.5981 742.472 75.3539C753.638 64.7875 764.041 57.4258 776.192 51.4759C802.38 38.6573 839.494 36.8869 880.705 46.4896C939.349 60.1374 980.459 86.5029 1020.24 111.994C1029.78 118.112 1039.66 124.443 1049.45 130.348C1088.63 153.98 1133.03 176.065 1181.39 195.999C1234.51 217.737 1293.06 237.133 1355.42 253.627C1491.54 289.976 1615.74 308.285 1725.85 308.285Z"
                  fill="url(#paint18_linear_806_573)"/>
        </g>
        <mask id="mask19_806_573" style="mask-type:luminance" maskUnits="userSpaceOnUse" x="-23" y="-459" width="1608"
              height="897">
            <path d="M-22.2018 -458.769H1584.47V437.636H-22.2018V-458.769Z" fill="white"/>
        </mask>
        <g mask="url(#mask19_806_573)">
            <path d="M1734.83 304.128C1758.71 304.128 1781.84 303.276 1804.4 301.562L1804.28 301.046C1735.85 306.223 1662.09 303.556 1578.76 292.912C1512.85 284.485 1440.59 270.882 1357.84 251.307C1291.59 235.643 1234.49 218.936 1183.26 200.223C1135.2 182.676 1090.01 162.529 1048.92 140.332C1038.12 134.483 1027.7 128.444 1016.65 122.057C976.201 98.6605 934.368 74.4576 876.789 61.4037C824.452 49.5039 790.812 56.6751 771.813 64.7764C758.88 70.2893 747.553 77.0235 736.165 85.954C725.34 94.4474 715.419 103.277 705.819 111.815C690.596 125.373 674.831 139.38 655.33 152.097C630.166 168.502 595.16 180.558 551.278 187.942C510.931 194.733 464.438 197.131 416.84 194.901C407.662 194.475 398.404 193.87 389.286 193.119C355.385 190.318 322.127 185.287 290.436 178.16C276.88 175.113 263.845 171.359 251.253 167.729C223.639 159.784 197.57 152.266 166.2 151.425C156.299 151.179 145.976 151.593 135.513 152.68C107.597 155.582 80.2637 162.44 53.834 169.073C41.1815 172.255 28.0872 175.538 15.2941 178.284C-33.9102 188.805 -86.4481 199.517 -140.091 204.784C-142.36 205.008 -144.63 205.21 -146.919 205.411C-232.414 212.818 -328.051 214.499 -423.487 210.297L-423.567 210.812C-328.071 215.025 -232.354 213.333 -146.779 205.927C-144.489 205.725 -142.219 205.512 -139.93 205.288C-86.187 200.01 -33.6089 189.298 15.6354 178.766C28.4486 176.009 41.543 172.726 54.2156 169.544C80.6051 162.922 107.878 156.064 135.694 153.184C146.097 152.109 156.359 151.683 166.18 151.929C197.329 152.77 223.317 160.255 250.831 168.177C263.464 171.807 276.498 175.572 290.094 178.631C321.846 185.78 355.184 190.822 389.145 193.623C398.283 194.385 407.582 194.979 416.76 195.405C464.478 197.646 511.091 195.237 551.559 188.436C595.622 181.018 630.788 168.905 656.053 152.434C675.594 139.693 691.359 125.665 706.623 112.084C716.223 103.546 726.124 94.7275 736.949 86.2453C748.276 77.3597 759.542 70.6703 772.396 65.1798C791.214 57.1569 824.532 50.0753 876.447 61.8743C933.825 74.8946 975.599 99.0527 1015.99 122.415C1027.03 128.802 1037.48 134.842 1048.28 140.702C1089.41 162.922 1134.64 183.091 1182.74 200.649C1234.01 219.373 1291.17 236.102 1357.46 251.778C1440.27 271.353 1512.57 284.978 1578.54 293.405C1634.51 300.576 1686.19 304.128 1734.83 304.128Z"
                  fill="url(#paint19_linear_806_573)"/>
        </g>
        <mask id="mask20_806_573" style="mask-type:luminance" maskUnits="userSpaceOnUse" x="-23" y="-459" width="1608"
              height="897">
            <path d="M-22.2018 -458.769H1584.47V437.636H-22.2018V-458.769Z" fill="white"/>
        </mask>
        <g mask="url(#mask20_806_573)">
            <path d="M1745.09 299.993C1764.95 299.993 1784.72 299.411 1804.36 298.167L1804.26 297.651C1654.92 307.164 1496.54 277.774 1359.83 249.481C1290.18 235.071 1234.47 220.897 1184.53 204.896C1136.35 189.455 1090.29 171.224 1047.68 150.697C1035.67 144.881 1024.04 138.842 1011.73 132.444C970.839 111.188 928.564 89.2146 872.471 76.8106C844.093 70.5246 802.922 65.7064 768.017 78.4689C754.26 83.5 742.03 89.5059 730.642 96.8116C718.773 104.42 707.888 112.375 697.344 120.062C681.518 131.603 665.171 143.537 645.489 154.305C619.561 168.49 584.416 178.698 540.995 184.626C501.05 190.083 454.999 191.607 407.803 189.052C398.745 188.57 389.527 187.931 380.449 187.147C346.97 184.301 313.853 179.539 281.98 172.984C269.107 170.339 256.655 167.135 244.605 164.042C216.268 156.759 189.477 149.879 157.926 149.733C157.705 149.733 157.504 149.733 157.283 149.733C147.703 149.733 137.782 150.372 127.781 151.616C100.387 155.044 73.5555 162.193 47.6079 169.096C35.2566 172.39 22.4836 175.785 9.99182 178.687C-38.0073 189.758 -89.3202 201.075 -142.601 207.092C-144.831 207.338 -147.08 207.585 -149.329 207.809C-237.174 216.639 -331.967 218.857 -423.447 214.196L-423.527 214.711C-331.967 219.373 -237.073 217.154 -149.149 208.313C-146.899 208.078 -144.65 207.843 -142.401 207.585C-89.019 201.557 -37.6659 190.228 10.3734 179.146C22.8854 176.244 35.6785 172.838 48.0297 169.544C73.9171 162.641 100.708 155.515 128.002 152.097C138.164 150.831 148.205 150.181 157.946 150.226C189.316 150.383 216.007 157.229 244.244 164.49C256.294 167.583 268.766 170.787 281.679 173.443C313.612 180.009 346.789 184.783 380.329 187.629C389.426 188.402 398.645 189.041 407.722 189.534C455.019 192.1 501.19 190.564 541.236 185.096C584.817 179.146 620.124 168.894 646.172 154.641C665.894 143.839 682.282 131.895 698.107 120.342C708.631 112.656 719.516 104.711 731.365 97.1142C742.712 89.8421 754.863 83.8698 768.56 78.8611C803.143 66.2106 843.993 71.0064 872.17 77.2476C928.102 89.6068 970.317 111.558 1011.15 132.78C1023.46 139.178 1035.09 145.229 1047.12 151.044C1089.79 171.583 1135.86 189.836 1184.1 205.299C1234.09 221.322 1289.84 235.497 1359.55 249.929C1478.35 274.569 1613.59 299.993 1745.09 299.993Z"
                  fill="url(#paint20_linear_806_573)"/>
        </g>
        <mask id="mask21_806_573" style="mask-type:luminance" maskUnits="userSpaceOnUse" x="-23" y="-459" width="1608"
              height="897">
            <path d="M-22.2018 -458.769H1584.47V437.636H-22.2018V-458.769Z" fill="white"/>
        </mask>
        <g mask="url(#mask21_806_573)">
            <path d="M1756.34 295.97C1772.45 295.97 1788.43 295.589 1804.3 294.772L1804.22 294.256C1664.36 301.483 1513.69 274.681 1380.76 251.027C1374.41 249.895 1368.11 248.775 1361.82 247.665C1287.97 234.567 1233.69 222.824 1185.79 209.568C1137.45 196.201 1090.56 179.886 1046.41 161.073C1032.94 155.302 1019.88 149.229 1006.07 142.808C964.995 123.704 922.498 103.949 868.133 92.2511C840.237 86.234 799.568 81.3374 764.181 92.2063C749.199 96.8116 736.406 101.887 725.079 107.725C712.206 114.359 700.337 121.328 688.869 128.062C672.461 137.699 655.49 147.649 635.608 156.579C584.235 179.651 497.896 189.377 398.725 183.27C389.728 182.721 380.59 182.037 371.592 181.253C338.595 178.362 305.599 173.869 273.505 167.885C261.455 165.644 249.727 162.978 238.38 160.4C209.138 153.767 181.544 147.503 149.611 148.108C140.052 148.288 130.07 149.139 120.008 150.618C93.1168 154.574 66.7876 162.014 41.3219 169.208C29.292 172.603 16.8403 176.121 4.64966 179.169C-42.1244 190.8 -92.2324 202.711 -145.152 209.49C-147.341 209.77 -149.55 210.039 -151.779 210.296C-239.182 220.471 -335.663 223.272 -423.467 218.196L-423.567 218.712C-335.682 223.799 -239.102 220.986 -151.599 210.812C-149.37 210.554 -147.16 210.274 -144.951 210.005C-91.9512 203.215 -41.8031 191.282 5.03125 179.651C17.2419 176.603 29.6936 173.084 41.7435 169.678C67.1489 162.496 93.4381 155.078 120.249 151.134C130.271 149.655 140.152 148.826 149.651 148.635C181.343 148.03 208.877 154.282 238.038 160.893C249.385 163.471 261.134 166.137 273.224 168.39C305.357 174.384 338.415 178.889 371.472 181.78C380.489 182.575 389.627 183.259 398.645 183.808C418.105 185.007 437.084 185.601 455.38 185.601C530.612 185.601 594.738 175.639 636.21 157.016C656.133 148.075 673.124 138.091 689.552 128.455C701.019 121.72 712.868 114.762 725.722 108.14C737.009 102.324 749.741 97.2822 764.643 92.6993C799.709 81.9312 840.096 86.7942 867.811 92.7778C922.056 104.442 964.472 124.174 1005.48 143.257C1019.3 149.688 1032.37 155.761 1045.85 161.532C1090.03 180.357 1136.99 196.694 1185.37 210.084C1233.31 223.35 1287.63 235.105 1361.52 248.214C1367.81 249.324 1374.11 250.455 1380.46 251.576C1498.41 272.496 1630.32 295.97 1756.34 295.97Z"
                  fill="url(#paint21_linear_806_573)"/>
        </g>
        <mask id="mask22_806_573" style="mask-type:luminance" maskUnits="userSpaceOnUse" x="-23" y="-459" width="1608"
              height="897">
            <path d="M-22.2018 -458.769H1584.47V437.636H-22.2018V-458.769Z" fill="white"/>
        </mask>
        <g mask="url(#mask22_806_573)">
            <path d="M1766.5 292.094C1779.11 292.094 1791.69 291.858 1804.22 291.365L1804.16 290.85C1683.38 295.612 1558.18 276.037 1437.09 257.1C1411.77 253.134 1387.85 249.391 1363.79 245.839C1296.07 235.833 1240.12 226.634 1187.04 214.241C1138.49 202.901 1090.76 188.503 1045.15 171.449C1029.9 165.712 1015.1 159.594 999.458 153.106C958.508 136.153 916.152 118.628 863.795 107.669C824.512 99.4224 788.743 98.8173 760.366 105.921C743.576 110.123 730.602 114.157 719.536 118.605C705.739 124.152 692.926 130.035 680.534 135.727C663.504 143.548 645.891 151.638 625.747 158.809C572.767 177.679 488.919 184.29 389.667 177.432C380.791 176.827 371.733 176.11 362.756 175.292C330.321 172.367 297.445 168.143 265.03 162.72C254.004 160.882 243.22 158.753 232.776 156.692C202.41 150.697 173.711 145.027 141.297 146.428C131.858 146.831 122.077 147.884 112.216 149.565C85.8265 154.058 59.9994 161.779 35.0358 169.252C23.3071 172.76 11.1766 176.39 -0.712646 179.583C-46.2817 191.752 -95.1846 204.268 -147.723 211.82C-149.892 212.123 -152.061 212.426 -154.25 212.717C-242.516 224.325 -338.133 227.664 -423.487 222.118L-423.587 222.633C-338.133 228.191 -242.396 224.841 -154.029 213.221C-151.84 212.93 -149.651 212.627 -147.482 212.325C-94.8633 204.761 -45.9202 192.234 -0.310913 180.054C11.5985 176.861 23.7289 173.219 35.4775 169.712C60.401 162.249 86.188 154.54 112.497 150.069C122.278 148.4 131.998 147.358 141.377 146.954C173.591 145.576 202.189 151.223 232.475 157.196C242.918 159.257 253.723 161.386 264.769 163.235C297.204 168.658 330.12 172.894 362.595 175.819C371.572 176.637 380.65 177.354 389.547 177.959C489.02 184.827 573.068 178.183 626.249 159.257C646.433 152.064 664.086 143.963 681.137 136.13C693.508 130.449 706.301 124.567 720.078 119.031C731.104 114.594 744.018 110.583 760.747 106.392C788.904 99.3439 824.411 99.9602 863.474 108.151C915.71 119.076 958.006 136.59 998.916 153.52C1014.58 160.008 1029.38 166.126 1044.65 171.874C1090.31 188.951 1138.11 203.372 1186.69 214.723C1239.82 227.127 1295.83 236.337 1363.57 246.343C1387.63 249.895 1411.55 253.638 1436.87 257.604C1545.44 274.58 1657.39 292.094 1766.5 292.094Z"
                  fill="url(#paint22_linear_806_573)"/>
        </g>
        <mask id="mask23_806_573" style="mask-type:luminance" maskUnits="userSpaceOnUse" x="-23" y="-459" width="1608"
              height="897">
            <path d="M-22.2018 -458.769H1584.47V437.636H-22.2018V-458.769Z" fill="white"/>
        </mask>
        <g mask="url(#mask23_806_573)">
            <path d="M1778.15 288.318C1786.85 288.318 1795.52 288.206 1804.16 287.97L1804.12 287.455C1698.18 290.357 1588.14 274.715 1481.72 259.588C1441.53 253.873 1403.6 248.484 1365.78 244.024C1303.66 236.696 1245 229.771 1188.3 218.913C1139.52 209.568 1090.92 197.097 1043.88 181.813C1026.45 176.11 1009.5 169.902 991.565 163.336C951.158 148.534 909.364 133.228 859.437 123.088C820.837 115.222 785.249 114.023 756.53 119.636C739.821 122.897 726.184 125.822 713.974 129.497C699.373 133.878 685.716 138.584 672.502 143.133C654.748 149.24 636.392 155.56 615.866 161.062C562.365 175.404 478.798 179.158 380.59 171.628C371.794 170.956 362.796 170.205 353.9 169.365C322.248 166.429 289.492 162.462 256.556 157.588C246.835 156.154 237.235 154.529 227.957 152.96C196.165 147.593 166.12 142.517 132.983 144.758C123.664 145.386 114.064 146.652 104.444 148.523C78.537 153.554 53.2319 161.577 28.7302 169.32C17.3029 172.939 5.51392 176.67 -6.07422 180.009C-48.5304 192.167 -98.1763 205.837 -150.272 214.162C-152.401 214.499 -154.55 214.835 -156.699 215.148C-245.427 228.202 -340.181 232.079 -423.507 226.062L-423.627 226.578C-340.181 232.606 -245.307 228.729 -156.478 215.653C-154.329 215.339 -152.18 215.003 -150.031 214.667C-97.835 206.33 -48.1487 192.649 -5.65234 180.48C5.93567 177.141 17.7648 173.398 29.172 169.779C53.6135 162.036 78.8984 154.036 104.726 149.016C114.285 147.156 123.805 145.901 133.063 145.274C166.02 143.044 195.964 148.109 227.656 153.453C236.934 155.022 246.534 156.636 256.274 158.081C289.251 162.955 322.027 166.922 353.699 169.869C362.616 170.698 371.613 171.46 380.41 172.132C427.505 175.74 471.146 176.816 510.108 175.314C552.423 173.69 588.131 169.051 616.228 161.521C636.813 155.997 655.19 149.677 672.963 143.57C686.158 139.032 699.815 134.326 714.395 129.956C726.546 126.303 740.142 123.39 756.811 120.129C785.33 114.561 820.716 115.748 859.096 123.581C908.922 133.71 950.656 148.994 991.023 163.773C1008.96 170.339 1025.91 176.558 1043.38 182.262C1090.48 197.557 1139.12 210.05 1187.96 219.406C1244.72 230.275 1303.4 237.2 1365.54 244.528C1403.33 248.988 1441.27 254.377 1481.46 260.092C1579.3 273.975 1680.16 288.318 1778.15 288.318Z"
                  fill="url(#paint23_linear_806_573)"/>
        </g>
        <mask id="mask24_806_573" style="mask-type:luminance" maskUnits="userSpaceOnUse" x="-23" y="-459" width="1608"
              height="897">
            <path d="M-22.2018 -458.769H1584.47V437.636H-22.2018V-458.769Z" fill="white"/>
        </mask>
        <g mask="url(#mask24_806_573)">
            <path d="M1789.9 284.676C1794.64 284.676 1799.38 284.642 1804.12 284.575L1804.1 284.06C1710.21 285.46 1612.6 272.518 1518.23 259.991C1465.99 253.055 1416.67 246.511 1367.79 242.197C1359.47 241.469 1351.22 240.741 1342.98 240.035C1289.56 235.396 1239.09 231.015 1189.59 223.586C1140.48 216.213 1091.04 205.658 1042.66 192.189C1022.45 186.519 1002.79 180.189 981.985 173.488C942.702 160.837 902.094 147.761 855.159 138.517C817.262 131.021 781.855 129.228 752.774 133.363L746.99 134.181C732.59 136.209 720.159 137.957 708.51 140.388C693.367 143.548 679.048 146.977 665.19 150.305C646.533 154.776 627.253 159.392 606.085 163.303C551.9 173.309 470.824 174.183 371.592 165.812C362.956 165.095 354.059 164.289 345.122 163.437C314.897 160.546 282.261 156.86 248.16 152.467C240.066 151.425 232.033 150.293 224.261 149.184C190.661 144.433 158.91 139.94 124.748 143.122C115.55 143.974 106.131 145.453 96.7517 147.515C71.3462 153.084 46.5232 161.398 22.5236 169.443C11.4175 173.163 -0.0500488 177.006 -11.3168 180.48C-52.6483 193.153 -101.069 207.439 -152.724 216.538C-154.812 216.908 -156.921 217.266 -159.05 217.614C-246.633 231.911 -342.993 236.438 -423.407 230.029L-423.547 230.544C-342.993 236.965 -246.513 232.438 -158.789 218.118C-156.66 217.77 -154.551 217.412 -152.442 217.042C-100.708 207.921 -52.2266 193.623 -10.8549 180.939C0.431885 177.455 11.9196 173.611 23.0256 169.891C47.0052 161.868 71.7881 153.565 97.1132 148.008C106.432 145.968 115.771 144.5 124.909 143.649C158.89 140.489 190.521 144.971 224.04 149.711C231.812 150.809 239.845 151.952 247.959 152.994C282.081 157.397 314.716 161.084 344.982 163.975C353.919 164.838 362.836 165.633 371.472 166.362C470.844 174.743 552.081 173.869 606.407 163.84C627.615 159.919 646.915 155.291 665.592 150.82C679.43 147.503 693.749 144.075 708.872 140.915C720.48 138.495 732.871 136.747 747.251 134.718L753.035 133.9C781.935 129.799 817.161 131.581 854.898 139.044C901.752 148.277 942.321 161.342 981.563 173.981C1002.39 180.682 1022.07 187.024 1042.3 192.693C1090.76 206.173 1140.24 216.751 1189.41 224.135C1238.97 231.575 1289.46 235.956 1342.9 240.595C1351.12 241.312 1359.39 242.029 1367.69 242.758C1416.53 247.072 1465.85 253.615 1518.07 260.54C1607.68 272.384 1700.27 284.676 1789.9 284.676Z"
                  fill="url(#paint24_linear_806_573)"/>
        </g>
        <mask id="mask25_806_573" style="mask-type:luminance" maskUnits="userSpaceOnUse" x="-23" y="-459" width="1608"
              height="897">
            <path d="M-22.2018 -458.769H1584.47V437.636H-22.2018V-458.769Z" fill="white"/>
        </mask>
        <g mask="url(#mask25_806_573)">
            <path d="M1801.67 281.169C1802.47 281.169 1803.25 281.169 1804.06 281.169V280.653C1803.27 280.653 1802.47 280.653 1801.69 280.653C1718.52 280.653 1632.22 269.706 1548.76 259.106C1489.29 251.554 1427.8 243.755 1369.75 240.371C1355.23 239.52 1340.71 238.746 1326.66 237.996C1279.58 235.474 1235.12 233.099 1190.83 228.258C1141.35 222.846 1091.06 214.196 1041.37 202.554C1017.59 196.94 994.397 190.408 969.835 183.505C932.52 173.017 893.94 162.171 850.801 153.924C813.587 146.786 778.36 144.411 748.918 147.066C743.335 147.571 737.953 148.008 732.751 148.434C722.248 149.285 712.326 150.103 702.947 151.268C687.764 153.162 673.244 155.269 659.166 157.297C639.163 160.188 618.497 163.179 596.184 165.532C541.819 171.281 465.362 169.454 362.475 159.975C353.919 159.19 345.082 158.35 336.206 157.476C303.851 154.294 270.654 150.708 239.605 147.302C233.6 146.641 227.595 145.946 221.791 145.274C185.862 141.117 151.941 137.195 116.373 141.43C107.296 142.517 98.0573 144.198 88.9395 146.45C64.016 152.568 39.6952 161.185 16.1575 169.51C5.37268 173.32 -5.77356 177.264 -16.719 180.883C-56.9459 194.072 -104.162 208.974 -155.334 218.857C-157.403 219.25 -159.471 219.642 -161.56 220.023C-249.063 235.766 -344.519 240.842 -423.467 233.939L-423.607 234.455C-344.499 241.368 -248.903 236.281 -161.259 220.516C-159.17 220.135 -157.081 219.743 -155.013 219.35C-103.76 209.445 -56.504 194.531 -16.2369 181.332C-5.27148 177.712 5.87476 173.768 16.6595 169.958C40.1571 161.644 64.4579 153.039 89.321 146.932C98.3987 144.702 107.557 143.021 116.594 141.946C151.961 137.721 185.801 141.643 221.63 145.789C227.434 146.461 233.439 147.156 239.464 147.817C270.513 151.224 303.691 154.82 336.065 157.991C344.942 158.865 353.778 159.706 362.334 160.49C465.341 169.981 541.879 171.807 596.365 166.048C618.698 163.684 639.384 160.692 659.407 157.801C673.465 155.773 687.985 153.666 703.148 151.773C712.487 150.607 722.408 149.8 732.892 148.938C738.093 148.512 743.476 148.075 749.079 147.571C778.36 144.926 813.426 147.291 850.5 154.406C893.578 162.641 932.138 173.477 969.413 183.954C993.995 190.867 1017.19 197.388 1041.01 203.013C1090.76 214.667 1141.11 223.328 1190.65 228.751C1234.98 233.603 1279.46 235.979 1326.56 238.5C1340.61 239.251 1355.13 240.024 1369.65 240.875C1427.63 244.259 1489.09 252.058 1548.54 259.599C1632.04 270.21 1718.4 281.169 1801.67 281.169Z"
                  fill="url(#paint25_linear_806_573)"/>
        </g>
        <mask id="mask26_806_573" style="mask-type:luminance" maskUnits="userSpaceOnUse" x="-23" y="-459" width="1608"
              height="897">
            <path d="M-22.2018 -458.769H1584.47V437.636H-22.2018V-458.769Z" fill="white"/>
        </mask>
        <g mask="url(#mask26_806_573)">
            <path d="M1803.98 277.762L1804 277.247C1728.6 276.485 1650.38 266.793 1574.74 257.425C1507.24 249.066 1437.48 240.416 1371.72 238.545C1352.54 237.996 1333.44 237.637 1314.95 237.29C1272.51 236.483 1232.44 235.732 1192.08 232.92C1142.13 229.446 1091 222.712 1040.11 212.919C1011.53 207.361 983.572 200.548 953.989 193.321C919.887 184.996 884.641 176.401 846.463 169.342C809.931 162.563 774.886 159.605 745.122 160.793C736.888 161.118 729.136 161.286 721.605 161.442C713.17 161.622 705.217 161.79 697.424 162.171C683.547 162.843 670.051 163.627 657.017 164.378C633.419 165.745 611.146 167.034 586.363 167.785C521.153 169.779 435.879 162.406 353.437 154.159C344.801 153.296 336.105 152.422 327.389 151.537C299.332 148.702 264.387 145.173 231.17 142.159C227.896 141.856 224.622 141.565 221.369 141.262C182.387 137.665 145.554 134.281 108.099 139.772C99.1217 141.094 90.064 142.988 81.1871 145.419C56.7457 152.097 32.9067 161.017 9.85107 169.633C-0.592163 173.544 -11.3971 177.578 -22.0211 181.32C-61.1636 195.024 -107.174 210.532 -157.845 221.21C-159.873 221.636 -161.922 222.051 -163.97 222.465C-251.192 239.665 -345.764 245.29 -423.447 237.895L-423.607 238.41C-345.784 245.828 -251.031 240.192 -163.669 222.958C-161.6 222.555 -159.552 222.129 -157.523 221.703C-106.793 211.014 -60.7217 195.484 -21.5392 181.769C-10.895 178.026 -0.0900879 173.981 10.3531 170.07C33.3888 161.454 57.2076 152.557 81.5889 145.89C90.4054 143.481 99.4028 141.587 108.32 140.287C145.594 134.819 182.327 138.203 221.208 141.789C224.462 142.091 227.735 142.394 231.009 142.685C264.227 145.699 299.152 149.229 327.208 152.064C335.924 152.949 344.62 153.823 353.256 154.686C435.758 162.944 521.093 170.306 586.404 168.322C611.207 167.56 633.499 166.272 657.097 164.916C670.131 164.165 683.607 163.381 697.484 162.709C705.257 162.328 713.19 162.16 721.625 161.98C729.156 161.823 736.928 161.655 745.162 161.33C774.805 160.154 809.73 163.101 846.161 169.858C884.3 176.905 919.526 185.5 953.607 193.825C983.21 201.052 1011.19 207.876 1039.81 213.434C1090.78 223.25 1141.97 229.984 1191.98 233.457C1232.4 236.27 1272.49 237.032 1314.95 237.827C1333.42 238.175 1352.52 238.533 1371.7 239.082C1437.37 240.954 1507.12 249.593 1574.56 257.952C1650.24 267.308 1728.5 277.012 1803.98 277.762Z"
                  fill="url(#paint26_linear_806_573)"/>
        </g>
        <mask id="mask27_806_573" style="mask-type:luminance" maskUnits="userSpaceOnUse" x="-23" y="-459" width="1608"
              height="897">
            <path d="M-22.2018 -458.769H1584.47V437.636H-22.2018V-458.769Z" fill="white"/>
        </mask>
        <g mask="url(#mask27_806_573)">
            <path d="M1803.92 274.367L1803.96 273.852C1736.6 272.328 1666.81 263.633 1599.31 255.229C1524.28 245.884 1446.69 236.259 1373.69 236.729C1354.05 236.864 1334.47 237.177 1315.53 237.491C1273.45 238.186 1233.71 238.836 1193.32 237.603C1142.85 236.068 1090.88 231.25 1038.82 223.294C1003.51 217.838 968.891 210.521 932.219 202.778C903.319 196.671 873.455 190.363 842.125 184.771C808.324 178.709 773.701 176.267 741.327 174.519C727.027 173.757 713.893 173.499 701.16 173.264C698.047 173.208 694.954 173.152 691.881 173.085C684.792 172.928 677.803 172.793 670.894 172.648C639.223 171.998 609.299 171.393 576.482 170.048C521.816 167.807 454.376 160.4 383 152.568C370.287 151.167 357.393 149.756 344.339 148.344C335.784 147.425 327.168 146.506 318.512 145.598C282.864 141.89 251.514 139.088 222.674 137.015C180.078 133.968 139.871 131.088 99.7643 138.113C90.8875 139.671 82.0306 141.778 73.4149 144.377C49.4554 151.616 26.0785 160.849 3.4646 169.768C-6.63733 173.757 -17.1007 177.88 -27.3834 181.746C-74.6194 199.372 -115.308 213.232 -160.395 223.541C-162.384 223.989 -164.392 224.449 -166.42 224.874C-251.955 243.273 -348.034 249.604 -423.447 241.805L-423.607 242.321C-348.014 250.131 -251.734 243.788 -166.059 225.367C-164.03 224.93 -162.022 224.482 -160.014 224.023C-114.846 213.692 -74.0973 199.82 -26.8212 182.172C-16.5183 178.306 -6.07507 174.183 4.047 170.182C26.6206 161.263 49.9777 152.053 73.8969 144.825C82.4524 142.237 91.2689 140.142 100.085 138.595C139.991 131.603 180.118 134.483 222.594 137.52C251.413 139.593 282.744 142.394 318.391 146.103C327.047 147.01 335.663 147.918 344.219 148.848C357.253 150.26 370.166 151.672 382.879 153.072C454.295 160.916 521.755 168.322 576.482 170.563C609.319 171.908 639.243 172.513 670.914 173.163C677.823 173.309 684.792 173.443 691.901 173.6C694.974 173.667 698.067 173.723 701.18 173.779C713.873 174.015 727.007 174.272 741.286 175.034C773.6 176.771 808.164 179.214 841.884 185.264C873.194 190.856 903.058 197.164 931.937 203.271C968.63 211.025 1003.29 218.342 1038.62 223.799C1090.72 231.765 1142.77 236.584 1193.3 238.119C1233.73 239.351 1273.49 238.701 1315.59 238.007C1334.53 237.693 1354.09 237.379 1373.73 237.245C1446.69 236.729 1524.15 246.399 1599.13 255.733C1666.65 264.137 1736.48 272.832 1803.92 274.367Z"
                  fill="url(#paint27_linear_806_573)"/>
        </g>
        <mask id="mask28_806_573" style="mask-type:luminance" maskUnits="userSpaceOnUse" x="-23" y="-459" width="1608"
              height="897">
            <path d="M-22.2018 -458.769H1584.47V437.636H-22.2018V-458.769Z" fill="white"/>
        </mask>
        <g mask="url(#mask28_806_573)">
            <path d="M1803.86 270.961L1803.92 270.445C1742.3 268.26 1678.56 260.35 1616.92 252.697C1536.73 242.735 1453.78 232.449 1375.68 234.903C1350.17 235.71 1324.87 237.032 1300.39 238.309C1264.08 240.203 1229.77 241.996 1194.59 242.276C1143.5 242.679 1090.68 239.788 1037.58 233.67C992.228 228.382 947.542 220.157 900.246 211.439C880.022 207.708 859.095 203.854 837.807 200.19C802.681 194.116 767.997 189.982 737.511 188.245C724.617 187.505 712.547 186.385 700.879 185.298C695.898 184.839 691.179 184.402 686.399 183.987C645.931 180.513 607.893 176.805 566.702 172.311C533.484 168.692 496.631 163.661 457.63 158.35C418.568 153.027 378.18 147.515 335.342 142.528C326.526 141.509 317.91 140.545 309.736 139.671C276.096 136.074 243.983 133.452 214.26 131.883C172.185 129.665 131.135 128.354 91.5104 136.455C82.754 138.248 74.0579 140.567 65.7032 143.346C42.2057 151.156 19.3107 160.703 -2.84119 169.925C-12.6017 173.992 -22.7236 178.205 -32.6649 182.183C-78.5956 200.447 -118.3 214.868 -162.885 225.894C-164.854 226.376 -166.822 226.858 -168.81 227.317C-253.802 247.172 -348.958 254.064 -423.406 245.761L-423.587 246.265C-348.978 254.59 -253.602 247.688 -168.448 227.799C-166.44 227.328 -164.472 226.858 -162.504 226.365C-117.859 215.328 -78.0934 200.884 -32.1227 182.598C-22.1613 178.62 -12.0594 174.407 -2.27881 170.328C19.853 161.106 42.7279 151.571 66.1852 143.783C74.4996 141.016 83.1356 138.707 91.8518 136.937C131.295 128.869 172.225 130.18 214.199 132.399C243.883 133.968 275.976 136.578 309.575 140.175C317.749 141.049 326.365 142.013 335.181 143.033C377.999 148.019 418.367 153.52 457.429 158.843C496.451 164.165 533.304 169.185 566.542 172.816C607.752 177.309 645.81 181.029 686.278 184.503C691.058 184.917 695.758 185.354 700.738 185.813C712.427 186.9 724.497 188.021 737.431 188.76C767.877 190.497 802.501 194.621 837.546 200.683C858.834 204.347 879.741 208.201 899.965 211.933C947.301 220.65 992.007 228.886 1037.42 234.175C1090.6 240.304 1143.46 243.206 1194.63 242.791C1229.85 242.511 1264.18 240.718 1300.51 238.825C1324.97 237.547 1350.29 236.225 1375.78 235.418C1453.8 232.953 1536.63 243.239 1616.78 253.201C1678.4 260.854 1742.16 268.776 1803.86 270.961Z"
                  fill="url(#paint28_linear_806_573)"/>
        </g>
        <mask id="mask29_806_573" style="mask-type:luminance" maskUnits="userSpaceOnUse" x="-23" y="-459" width="1608"
              height="897">
            <path d="M-22.2018 -458.769H1584.47V437.636H-22.2018V-458.769Z" fill="white"/>
        </mask>
        <g mask="url(#mask29_806_573)">
            <path d="M1803.8 267.566L1803.88 267.05C1747.94 264.35 1690.18 257.022 1634.33 249.94C1549.04 239.127 1460.83 227.945 1377.67 233.088C1350.03 234.791 1322.6 237.211 1296.09 239.542C1263.27 242.433 1229.35 245.425 1195.85 246.948C1144.14 249.313 1090.46 248.327 1036.31 244.035C974.314 239.049 912.959 228.83 848.01 218.017L833.469 215.597C799.187 209.882 764.684 205.176 733.695 201.96C717.769 200.313 702.847 198.117 688.427 195.999C685.897 195.629 683.366 195.259 680.856 194.89C636.853 188.492 594.337 181.085 556.841 174.564C541.136 171.83 525.07 168.928 508.059 165.857C453.693 156.042 392.058 144.904 326.285 136.702C317.749 135.637 309.194 134.64 300.9 133.721C268.063 130.113 236.05 127.76 205.805 126.74C165.779 125.385 123.222 125.429 83.2162 134.797C74.48 136.859 65.9646 139.391 57.9513 142.316C34.8956 150.708 12.4425 160.58 -9.24756 170.126C-18.6466 174.261 -28.387 178.541 -37.9868 182.62C-76.6071 198.968 -118.782 215.821 -165.415 228.247C-167.344 228.763 -169.292 229.267 -171.26 229.76C-210.282 239.575 -253.16 246.724 -295.234 250.433C-342.008 254.545 -385.127 254.31 -423.406 249.705L-423.607 250.209C-385.208 254.826 -341.988 255.061 -295.094 250.937C-252.939 247.229 -209.98 240.069 -170.878 230.23C-168.91 229.726 -166.962 229.222 -165.034 228.707C-118.32 216.258 -76.105 199.394 -37.4445 183.024C-27.8447 178.945 -18.1042 174.665 -8.70532 170.519C12.9847 160.983 35.4178 151.111 58.4333 142.73C66.4064 139.828 74.8615 137.307 83.5576 135.256C123.383 125.934 165.799 125.889 205.724 127.245C235.93 128.264 267.882 130.617 300.699 134.225C309.013 135.144 317.548 136.142 326.064 137.206C391.817 145.408 453.412 156.535 507.758 166.35C524.768 169.421 540.835 172.323 556.54 175.057C594.056 181.589 636.592 188.985 680.595 195.394C683.105 195.764 685.636 196.133 688.166 196.503C702.606 198.621 717.548 200.828 733.494 202.476C764.463 205.68 798.946 210.397 833.188 216.101L847.729 218.521C912.718 229.345 974.093 239.564 1036.17 244.551C1090.4 248.853 1144.14 249.828 1195.91 247.464C1229.45 245.929 1263.39 242.937 1296.23 240.046C1322.74 237.715 1350.15 235.295 1377.77 233.592C1460.77 228.471 1548.9 239.643 1634.13 250.433C1690 257.526 1747.8 264.854 1803.8 267.566Z"
                  fill="url(#paint29_linear_806_573)"/>
        </g>
        <mask id="mask30_806_573" style="mask-type:luminance" maskUnits="userSpaceOnUse" x="-23" y="-459" width="1608"
              height="897">
            <path d="M-22.2018 -458.769H1584.47V437.636H-22.2018V-458.769Z" fill="white"/>
        </mask>
        <g mask="url(#mask30_806_573)">
            <path d="M1803.74 264.159L1803.84 263.644C1752.96 260.518 1700.55 253.671 1649.84 247.049C1560.08 235.329 1467.28 223.205 1379.64 231.261C1350.33 233.951 1321.23 237.559 1293.1 241.043C1261.73 244.931 1229.29 248.954 1197.08 251.621C1144.66 255.957 1090.13 256.898 1035.03 254.411C961.54 251.038 889.682 240.696 829.111 231.015C797.118 225.894 763.719 220.74 729.839 215.686C710.76 212.84 693.147 209.389 675.272 205.792C636.532 198.016 600.382 189.466 562.123 180.413C557.082 179.214 552.021 178.026 546.94 176.816L536.898 174.452C471.888 159.089 398.183 141.677 317.166 130.875C308.731 129.755 300.256 128.713 291.982 127.771C260.17 124.174 227.414 122.034 197.269 121.586C146.177 120.824 107.275 124.488 74.861 133.116C66.2251 135.424 57.9106 138.17 50.1383 141.262C27.5044 150.26 5.47302 160.479 -15.8153 170.362C-24.8326 174.552 -34.1514 178.878 -43.3696 183.035C-80.8854 199.932 -121.956 217.389 -168.007 230.578C-169.895 231.116 -171.823 231.653 -173.751 232.18C-212.07 242.59 -254.466 250.22 -296.359 254.232C-342.33 258.635 -386.272 258.422 -423.467 253.638L-423.668 254.142C-386.353 258.949 -342.29 259.162 -296.199 254.747C-254.225 250.725 -211.728 243.094 -173.349 232.651C-171.421 232.124 -169.493 231.586 -167.585 231.048C-121.474 217.849 -80.363 200.369 -42.7871 183.449C-33.569 179.292 -24.2502 174.956 -15.2128 170.776C6.07556 160.893 28.0869 150.686 50.7007 141.699C58.4329 138.629 66.7072 135.906 75.2827 133.598C107.557 125.004 146.318 121.362 197.269 122.113C227.374 122.561 260.07 124.701 291.821 128.287C300.096 129.228 308.551 130.27 316.966 131.379C397.901 142.17 471.567 159.571 536.537 174.933L546.578 177.309C551.659 178.508 556.72 179.707 561.761 180.894C600.04 189.948 636.19 198.498 674.951 206.285C692.845 209.882 710.479 213.333 729.598 216.19C763.478 221.244 796.857 226.398 828.85 231.519C889.481 241.2 961.38 251.554 1034.94 254.926C1090.13 257.425 1144.74 256.484 1197.22 252.136C1229.47 249.47 1261.93 245.447 1293.3 241.559C1321.41 238.074 1350.49 234.466 1379.78 231.777C1467.24 223.743 1559.94 235.844 1649.6 247.553C1700.37 254.187 1752.82 261.033 1803.74 264.159Z"
                  fill="url(#paint30_linear_806_573)"/>
        </g>
        <mask id="mask31_806_573" style="mask-type:luminance" maskUnits="userSpaceOnUse" x="-23" y="-459" width="1608"
              height="897">
            <path d="M-22.2018 -458.769H1584.47V437.636H-22.2018V-458.769Z" fill="white"/>
        </mask>
        <g mask="url(#mask31_806_573)">
            <path d="M1050.31 265.414C1100.58 265.414 1150.36 262.524 1198.56 256.82C1229.89 253.066 1261.28 248.069 1291.61 243.228C1320.95 238.545 1351.32 233.715 1381.82 229.962C1473.28 218.857 1570.01 231.956 1663.53 244.618C1709.64 250.859 1757.3 257.313 1803.67 260.776L1803.8 260.26C1757.48 256.809 1709.83 250.355 1663.75 244.114C1570.11 231.429 1473.28 218.32 1381.62 229.457C1351.08 233.211 1320.71 238.052 1291.35 242.735C1261.02 247.565 1229.67 252.573 1198.36 256.316C1144.96 262.647 1089.59 265.504 1033.78 264.798C968.168 263.947 899.804 257.952 824.793 246.455C790.169 241.144 756.951 235.418 726.043 229.435C708.731 226.085 690.837 222.051 669.75 216.728C629.944 206.689 591.163 195.17 553.668 184.021C548.165 182.385 542.642 180.749 537.099 179.102C474.118 160.569 395.712 137.497 308.149 125.071C299.855 123.894 291.46 122.808 283.185 121.844C251.855 118.202 219.22 116.342 188.834 116.454C139.65 116.645 99.6438 121.553 66.5865 131.469C58.0511 134.035 49.9175 136.982 42.4062 140.243C20.1539 149.879 -1.49597 160.468 -22.4229 170.72C-31.0184 174.922 -39.8954 179.281 -48.6718 183.494C-85.123 200.952 -125.089 219.025 -170.497 232.942C-172.365 233.514 -174.233 234.074 -176.141 234.634C-240.166 253.38 -338.735 269.258 -423.407 257.593L-423.628 258.098C-338.715 269.796 -239.885 253.896 -175.699 235.094C-173.791 234.533 -171.903 233.973 -170.055 233.402C-124.567 219.451 -84.5405 201.366 -48.0691 183.886C-39.2927 179.673 -30.3959 175.326 -21.8002 171.113C-0.873413 160.871 20.7563 150.271 42.9886 140.657C50.4797 137.419 58.5533 134.483 67.0486 131.94C99.9852 122.068 139.831 117.183 188.874 116.992C219.18 116.88 251.755 118.74 283.025 122.371C291.279 123.334 299.654 124.41 307.948 125.586C395.411 138.002 473.756 161.05 536.697 179.572C542.22 181.208 547.743 182.844 553.246 184.491C590.762 195.64 629.563 207.171 669.388 217.21C690.496 222.533 708.41 226.578 725.762 229.939C756.69 235.923 789.928 241.649 824.572 246.971C899.664 258.479 968.108 264.484 1033.78 265.336C1039.28 265.37 1044.79 265.414 1050.31 265.414Z"
                  fill="url(#paint31_linear_806_573)"/>
        </g>
        <mask id="mask32_806_573" style="mask-type:luminance" maskUnits="userSpaceOnUse" x="-23" y="-459" width="1608"
              height="897">
            <path d="M-22.2018 -458.769H1584.47V437.636H-22.2018V-458.769Z" fill="white"/>
        </mask>
        <g mask="url(#mask32_806_573)">
            <path d="M1008.8 275.947C1073.75 275.947 1137.73 271.118 1199.87 261.493C1230.5 256.742 1261 250.78 1290.53 245.021C1320.91 239.082 1352.32 232.953 1383.87 228.135C1478.89 213.647 1579.14 227.844 1676.11 241.581C1718.04 247.52 1761.42 253.66 1803.65 257.369L1803.8 256.854C1761.6 253.156 1718.26 247.016 1676.35 241.077C1579.28 227.328 1478.91 213.109 1383.65 227.642C1352.06 232.46 1320.65 238.601 1290.24 244.539C1260.76 250.299 1230.26 256.26 1199.65 261C1111.4 274.67 1019.42 278.659 926.214 272.855C833.027 267.05 744.881 251.834 664.207 227.642C624.08 215.608 585.058 201.803 547.342 188.469C463.474 158.809 376.734 128.141 274.349 115.916C232.114 110.874 188.854 109.81 149.27 112.857C102.877 116.42 64.3174 125.284 34.6543 139.212C12.7032 149.52 -8.62524 160.535 -29.2307 171.191C-73.394 194.004 -119.044 217.602 -173.048 235.295C-271.074 267.42 -369.181 269.504 -423.406 261.537L-423.647 262.042C-386.453 267.51 -341.908 267.498 -294.853 262.008C-252.618 257.078 -209.198 247.755 -172.586 235.755C-118.501 218.028 -72.8116 194.419 -28.6082 171.583C-8.00269 160.938 13.3057 149.924 35.2367 139.626C64.7593 125.754 103.159 116.925 149.37 113.384C188.854 110.347 232.013 111.412 274.128 116.443C376.352 128.645 463.012 159.291 546.819 188.928C584.556 202.274 623.578 216.078 663.745 228.124C744.52 252.349 832.786 267.588 926.093 273.404C953.788 275.084 981.383 275.947 1008.8 275.947Z"
                  fill="url(#paint32_linear_806_573)"/>
        </g>
    </g>
    <defs>
        <linearGradient id="paint0_linear_806_573" x1="1803.74" y1="89.674" x2="-426.215" y2="89.674"
                        gradientUnits="userSpaceOnUse">
            <stop stop-color="#3DFFED"/>
            <stop offset="0.9966" stop-color="#CB00DD"/>
        </linearGradient>
        <linearGradient id="paint1_linear_806_573" x1="1803.78" y1="99.1987" x2="-426.048" y2="99.1987"
                        gradientUnits="userSpaceOnUse">
            <stop stop-color="#3DFFED"/>
            <stop offset="0.9966" stop-color="#CB00DD"/>
        </linearGradient>
        <linearGradient id="paint2_linear_806_573" x1="1803.82" y1="108.53" x2="-425.882" y2="108.53"
                        gradientUnits="userSpaceOnUse">
            <stop stop-color="#3DFFED"/>
            <stop offset="0.9966" stop-color="#CB00DD"/>
        </linearGradient>
        <linearGradient id="paint3_linear_806_573" x1="1803.86" y1="117.672" x2="-425.717" y2="117.672"
                        gradientUnits="userSpaceOnUse">
            <stop stop-color="#3DFFED"/>
            <stop offset="0.9966" stop-color="#CB00DD"/>
        </linearGradient>
        <linearGradient id="paint4_linear_806_573" x1="1803.9" y1="123.255" x2="-425.549" y2="123.255"
                        gradientUnits="userSpaceOnUse">
            <stop stop-color="#3DFFED"/>
            <stop offset="0.9966" stop-color="#CB00DD"/>
        </linearGradient>
        <linearGradient id="paint5_linear_806_573" x1="1803.94" y1="127.024" x2="-425.384" y2="127.024"
                        gradientUnits="userSpaceOnUse">
            <stop stop-color="#3DFFED"/>
            <stop offset="0.9966" stop-color="#CB00DD"/>
        </linearGradient>
        <linearGradient id="paint6_linear_806_573" x1="1804" y1="130.391" x2="-425.218" y2="130.391"
                        gradientUnits="userSpaceOnUse">
            <stop stop-color="#3DFFED"/>
            <stop offset="0.9966" stop-color="#CB00DD"/>
        </linearGradient>
        <linearGradient id="paint7_linear_806_573" x1="1804.06" y1="133.69" x2="-425.052" y2="133.69"
                        gradientUnits="userSpaceOnUse">
            <stop stop-color="#3DFFED"/>
            <stop offset="0.9966" stop-color="#CB00DD"/>
        </linearGradient>
        <linearGradient id="paint8_linear_806_573" x1="1804.12" y1="136.955" x2="-424.887" y2="136.955"
                        gradientUnits="userSpaceOnUse">
            <stop stop-color="#3DFFED"/>
            <stop offset="0.9966" stop-color="#CB00DD"/>
        </linearGradient>
        <linearGradient id="paint9_linear_806_573" x1="1804.17" y1="140.21" x2="-424.72" y2="140.21"
                        gradientUnits="userSpaceOnUse">
            <stop stop-color="#3DFFED"/>
            <stop offset="0.9966" stop-color="#CB00DD"/>
        </linearGradient>
        <linearGradient id="paint10_linear_806_573" x1="1804.23" y1="143.482" x2="-424.555" y2="143.482"
                        gradientUnits="userSpaceOnUse">
            <stop stop-color="#3DFFED"/>
            <stop offset="0.9966" stop-color="#CB00DD"/>
        </linearGradient>
        <linearGradient id="paint11_linear_806_573" x1="1804.29" y1="146.726" x2="-424.388" y2="146.726"
                        gradientUnits="userSpaceOnUse">
            <stop stop-color="#3DFFED"/>
            <stop offset="0.9966" stop-color="#CB00DD"/>
        </linearGradient>
        <linearGradient id="paint12_linear_806_573" x1="1804.35" y1="149.956" x2="-424.223" y2="149.956"
                        gradientUnits="userSpaceOnUse">
            <stop stop-color="#3DFFED"/>
            <stop offset="0.9966" stop-color="#CB00DD"/>
        </linearGradient>
        <linearGradient id="paint13_linear_806_573" x1="1804.41" y1="153.176" x2="-424.059" y2="153.176"
                        gradientUnits="userSpaceOnUse">
            <stop stop-color="#3DFFED"/>
            <stop offset="0.9966" stop-color="#CB00DD"/>
        </linearGradient>
        <linearGradient id="paint14_linear_806_573" x1="1804.46" y1="156.435" x2="-423.891" y2="156.435"
                        gradientUnits="userSpaceOnUse">
            <stop stop-color="#3DFFED"/>
            <stop offset="0.9966" stop-color="#CB00DD"/>
        </linearGradient>
        <linearGradient id="paint15_linear_806_573" x1="1804.52" y1="159.716" x2="-423.726" y2="159.716"
                        gradientUnits="userSpaceOnUse">
            <stop stop-color="#3DFFED"/>
            <stop offset="0.9966" stop-color="#CB00DD"/>
        </linearGradient>
        <linearGradient id="paint16_linear_806_573" x1="1804.58" y1="162.964" x2="-423.559" y2="162.964"
                        gradientUnits="userSpaceOnUse">
            <stop stop-color="#3DFFED"/>
            <stop offset="0.9966" stop-color="#CB00DD"/>
        </linearGradient>
        <linearGradient id="paint17_linear_806_573" x1="1804.52" y1="168.501" x2="-423.565" y2="168.501"
                        gradientUnits="userSpaceOnUse">
            <stop stop-color="#3DFFED"/>
            <stop offset="0.9966" stop-color="#CB00DD"/>
        </linearGradient>
        <linearGradient id="paint18_linear_806_573" x1="1804.46" y1="174.062" x2="-423.57" y2="174.062"
                        gradientUnits="userSpaceOnUse">
            <stop stop-color="#3DFFED"/>
            <stop offset="0.9966" stop-color="#CB00DD"/>
        </linearGradient>
        <linearGradient id="paint19_linear_806_573" x1="1804.4" y1="179.615" x2="-423.576" y2="179.615"
                        gradientUnits="userSpaceOnUse">
            <stop stop-color="#3DFFED"/>
            <stop offset="0.9966" stop-color="#CB00DD"/>
        </linearGradient>
        <linearGradient id="paint20_linear_806_573" x1="1804.34" y1="185.226" x2="-423.582" y2="185.226"
                        gradientUnits="userSpaceOnUse">
            <stop stop-color="#3DFFED"/>
            <stop offset="0.9966" stop-color="#CB00DD"/>
        </linearGradient>
        <linearGradient id="paint21_linear_806_573" x1="1804.28" y1="190.863" x2="-423.587" y2="190.863"
                        gradientUnits="userSpaceOnUse">
            <stop stop-color="#3DFFED"/>
            <stop offset="0.9966" stop-color="#CB00DD"/>
        </linearGradient>
        <linearGradient id="paint22_linear_806_573" x1="1804.22" y1="196.546" x2="-423.594" y2="196.546"
                        gradientUnits="userSpaceOnUse">
            <stop stop-color="#3DFFED"/>
            <stop offset="0.9966" stop-color="#CB00DD"/>
        </linearGradient>
        <linearGradient id="paint23_linear_806_573" x1="1804.16" y1="202.232" x2="-423.599" y2="202.232"
                        gradientUnits="userSpaceOnUse">
            <stop stop-color="#3DFFED"/>
            <stop offset="0.9966" stop-color="#CB00DD"/>
        </linearGradient>
        <linearGradient id="paint24_linear_806_573" x1="1804.1" y1="207.922" x2="-423.605" y2="207.922"
                        gradientUnits="userSpaceOnUse">
            <stop stop-color="#3DFFED"/>
            <stop offset="0.9966" stop-color="#CB00DD"/>
        </linearGradient>
        <linearGradient id="paint25_linear_806_573" x1="1804.04" y1="210.385" x2="-423.612" y2="210.385"
                        gradientUnits="userSpaceOnUse">
            <stop stop-color="#3DFFED"/>
            <stop offset="0.9966" stop-color="#CB00DD"/>
        </linearGradient>
        <linearGradient id="paint26_linear_806_573" x1="1804" y1="207.32" x2="-423.618" y2="207.32"
                        gradientUnits="userSpaceOnUse">
            <stop stop-color="#3DFFED"/>
            <stop offset="0.9966" stop-color="#CB00DD"/>
        </linearGradient>
        <linearGradient id="paint27_linear_806_573" x1="1803.96" y1="204.059" x2="-423.625" y2="204.059"
                        gradientUnits="userSpaceOnUse">
            <stop stop-color="#3DFFED"/>
            <stop offset="0.9966" stop-color="#CB00DD"/>
        </linearGradient>
        <linearGradient id="paint28_linear_806_573" x1="1803.92" y1="200.574" x2="-423.63" y2="200.574"
                        gradientUnits="userSpaceOnUse">
            <stop stop-color="#3DFFED"/>
            <stop offset="0.9966" stop-color="#CB00DD"/>
        </linearGradient>
        <linearGradient id="paint29_linear_806_573" x1="1803.88" y1="196.83" x2="-423.637" y2="196.83"
                        gradientUnits="userSpaceOnUse">
            <stop stop-color="#3DFFED"/>
            <stop offset="0.9966" stop-color="#CB00DD"/>
        </linearGradient>
        <linearGradient id="paint30_linear_806_573" x1="1803.84" y1="192.828" x2="-423.645" y2="192.828"
                        gradientUnits="userSpaceOnUse">
            <stop stop-color="#3DFFED"/>
            <stop offset="0.9966" stop-color="#CB00DD"/>
        </linearGradient>
        <linearGradient id="paint31_linear_806_573" x1="1803.8" y1="190.929" x2="-423.65" y2="190.929"
                        gradientUnits="userSpaceOnUse">
            <stop stop-color="#3DFFED"/>
            <stop offset="0.9966" stop-color="#CB00DD"/>
        </linearGradient>
        <linearGradient id="paint32_linear_806_573" x1="1803.77" y1="193.543" x2="-423.657" y2="193.543"
                        gradientUnits="userSpaceOnUse">
            <stop stop-color="#3DFFED"/>
            <stop offset="0.9966" stop-color="#CB00DD"/>
        </linearGradient>
        <clipPath id="clip0_806_573">
            <rect width="1439" height="317" fill="white" transform="matrix(-1 0 0 1 1439 0)"/>
        </clipPath>
    </defs>
</svg>
